<?xml version="1.0" encoding="UTF-8" standalone="no"?>
<!-- Created with Inkscape (http://www.inkscape.org/) -->

<svg
   xmlns:dc="http://purl.org/dc/elements/1.1/"
   xmlns:cc="http://creativecommons.org/ns#"
   xmlns:rdf="http://www.w3.org/1999/02/22-rdf-syntax-ns#"
   xmlns:svg="http://www.w3.org/2000/svg"
   xmlns="http://www.w3.org/2000/svg"
   xmlns:sodipodi="http://sodipodi.sourceforge.net/DTD/sodipodi-0.dtd"
   xmlns:inkscape="http://www.inkscape.org/namespaces/inkscape"
   width="210mm"
   height="297mm"
   viewBox="0 0 210 297"
   version="1.1"
   id="svg19658"
   inkscape:version="0.92.4 (5da689c313, 2019-01-14)"
   sodipodi:docname="dibujo-3.svg">
  <defs
     id="defs19652" />
  <sodipodi:namedview
     id="base"
     pagecolor="#ffffff"
     bordercolor="#666666"
     borderopacity="1.0"
     inkscape:pageopacity="0.0"
     inkscape:pageshadow="2"
     inkscape:zoom="7.9195959"
     inkscape:cx="443.85066"
     inkscape:cy="512.08064"
     inkscape:document-units="mm"
     inkscape:current-layer="layer1"
     showgrid="false"
     inkscape:window-width="1920"
     inkscape:window-height="1017"
     inkscape:window-x="-8"
     inkscape:window-y="-8"
     inkscape:window-maximized="1" />
  <metadata
     id="metadata19655">
    <rdf:RDF>
      <cc:Work
         rdf:about="">
        <dc:format>image/svg+xml</dc:format>
        <dc:type
           rdf:resource="http://purl.org/dc/dcmitype/StillImage" />
        <dc:title></dc:title>
      </cc:Work>
    </rdf:RDF>
  </metadata>
  <g
     inkscape:label="Capa 1"
     inkscape:groupmode="layer"
     id="layer1">
    <path
       inkscape:connector-curvature="0"
       id="path4974"
       style="fill:#a5733e;stroke:#f68712;stroke-width:1.131;stroke-linecap:butt;stroke-linejoin:miter;stroke-miterlimit:4;stroke-dasharray:none;stroke-opacity:1;fill-opacity:1"
       d="m 95.657261,128.88541 17.496369,17.49601 c 0,0 3.64031,3.64102 6.1147,6.11505 2.47403,2.47403 2.26201,4.52402 2.26201,4.52402 v 2.89843 4.72651 c 0,0 -0.37042,3.46922 0.98178,4.82141 l 1.70497,1.70498 1.11725,1.11725" />
    <path
       inkscape:connector-curvature="0"
       id="path8726-9"
       style="fill:#f68712;fill-opacity:1;fill-rule:nonzero;stroke:none;stroke-width:0.169"
       d="m 94.074343,124.97378 c 0,1.14151 -0.922215,2.06749 -2.059675,2.06749 -1.13745,0 -2.05966,-0.92598 -2.05966,-2.06749 0,-1.14203 0.92221,-2.06749 2.05966,-2.06749 1.13746,0 2.059675,0.92546 2.059675,2.06749" />
    <path
       inkscape:connector-curvature="0"
       id="path5128"
       style="fill:#f68712;fill-opacity:1;fill-rule:nonzero;stroke:none;stroke-width:0.35277778"
       d="m 96.970713,129.26804 c 0,0.54081 -0.4385,0.97966 -0.97966,0.97966 -0.540461,0 -0.97931,-0.43885 -0.97931,-0.97966 0,-0.54152 0.438849,-0.97931 0.97931,-0.97931 0.54116,0 0.97966,0.43779 0.97966,0.97931" />
    <path
       inkscape:connector-curvature="0"
       id="path5128-9"
       style="fill:#f68712;fill-opacity:1;fill-rule:nonzero;stroke:none;stroke-width:0.45453024"
       d="m 100.6113,132.62614 c 0,0.6968 -0.56497,1.26223 -1.262227,1.26223 -0.69635,0 -1.26177,-0.56543 -1.26177,-1.26223 0,-0.69771 0.56542,-1.26177 1.26177,-1.26177 0.697257,0 1.262227,0.56406 1.262227,1.26177" />
    <path
       inkscape:connector-curvature="0"
       id="path5128-3"
       style="fill:#555e69;fill-opacity:1;fill-rule:nonzero;stroke:none;stroke-width:0.27012503;stroke-opacity:1"
       d="m 100.09918,132.62829 c 0,0.4141 -0.335758,0.75013 -0.750127,0.75013 -0.41384,0 -0.749871,-0.33603 -0.749871,-0.75013 0,-0.41465 0.336031,-0.74987 0.749871,-0.74987 0.414369,0 0.750127,0.33522 0.750127,0.74987" />
    <path
       inkscape:connector-curvature="0"
       id="path5128-9-0"
       style="fill:#f68712;fill-opacity:1;fill-rule:nonzero;stroke:none;stroke-width:0.45453024"
       d="m 104.13917,136.15542 c 0,0.6968 -0.56497,1.26223 -1.26223,1.26223 -0.69635,0 -1.26177,-0.56543 -1.26177,-1.26223 0,-0.69771 0.56542,-1.26177 1.26177,-1.26177 0.69726,0 1.26223,0.56406 1.26223,1.26177" />
    <path
       inkscape:connector-curvature="0"
       id="path5128-3-7"
       style="fill:#555e69;fill-opacity:1;fill-rule:nonzero;stroke:none;stroke-width:0.27012503;stroke-opacity:1"
       d="m 103.62705,136.15757 c 0,0.4141 -0.33576,0.75013 -0.75013,0.75013 -0.41384,0 -0.74987,-0.33603 -0.74987,-0.75013 0,-0.41465 0.33603,-0.74987 0.74987,-0.74987 0.41437,0 0.75013,0.33522 0.75013,0.74987" />
    <path
       inkscape:connector-curvature="0"
       id="path5128-9-1"
       style="fill:#f68712;fill-opacity:1;fill-rule:nonzero;stroke:none;stroke-width:0.45453024"
       d="m 107.57191,139.59234 c 0,0.6968 -0.56497,1.26223 -1.26223,1.26223 -0.69635,0 -1.26177,-0.56543 -1.26177,-1.26223 0,-0.69771 0.56542,-1.26177 1.26177,-1.26177 0.69726,0 1.26223,0.56406 1.26223,1.26177" />
    <path
       inkscape:connector-curvature="0"
       id="path5128-3-0"
       style="fill:#555e69;fill-opacity:1;fill-rule:nonzero;stroke:none;stroke-width:0.27012503;stroke-opacity:1"
       d="m 107.05979,139.59449 c 0,0.4141 -0.33576,0.75013 -0.75013,0.75013 -0.41384,0 -0.74987,-0.33603 -0.74987,-0.75013 0,-0.41465 0.33603,-0.74987 0.74987,-0.74987 0.41437,0 0.75013,0.33522 0.75013,0.74987" />
    <path
       inkscape:connector-curvature="0"
       id="path5128-9-06"
       style="fill:#f68712;fill-opacity:1;fill-rule:nonzero;stroke:none;stroke-width:0.45453024"
       d="m 111.03389,143.05431 c 0,0.6968 -0.56497,1.26223 -1.26223,1.26223 -0.69634,0 -1.26176,-0.56543 -1.26176,-1.26223 0,-0.69771 0.56542,-1.26177 1.26176,-1.26177 0.69726,0 1.26223,0.56406 1.26223,1.26177" />
    <path
       inkscape:connector-curvature="0"
       id="path5128-3-5"
       style="fill:#555e69;fill-opacity:1;fill-rule:nonzero;stroke:none;stroke-width:0.27012503;stroke-opacity:1"
       d="m 110.52177,143.05646 c 0,0.4141 -0.33576,0.75013 -0.75013,0.75013 -0.41384,0 -0.74986,-0.33603 -0.74986,-0.75013 0,-0.41465 0.33602,-0.74987 0.74986,-0.74987 0.41437,0 0.75013,0.33522 0.75013,0.74987" />
    <path
       inkscape:connector-curvature="0"
       id="path5128-9-3"
       style="fill:#f68712;fill-opacity:1;fill-rule:nonzero;stroke:none;stroke-width:0.45453024"
       d="m 114.46662,146.48289 c 0,0.6968 -0.56497,1.26223 -1.26223,1.26223 -0.69635,0 -1.26177,-0.56543 -1.26177,-1.26223 0,-0.69771 0.56542,-1.26177 1.26177,-1.26177 0.69726,0 1.26223,0.56406 1.26223,1.26177" />
    <path
       inkscape:connector-curvature="0"
       id="path5128-3-2"
       style="fill:#555e69;fill-opacity:1;fill-rule:nonzero;stroke:none;stroke-width:0.27012503;stroke-opacity:1"
       d="m 113.9545,146.48504 c 0,0.4141 -0.33576,0.75013 -0.75013,0.75013 -0.41384,0 -0.74987,-0.33603 -0.74987,-0.75013 0,-0.41465 0.33603,-0.74987 0.74987,-0.74987 0.41437,0 0.75013,0.33522 0.75013,0.74987" />
    <path
       inkscape:connector-curvature="0"
       id="path5128-9-064"
       style="fill:#f68712;fill-opacity:1;fill-rule:nonzero;stroke:none;stroke-width:0.45453024"
       d="m 117.9662,149.9741 c 0,0.6968 -0.56497,1.26223 -1.26224,1.26223 -0.69635,0 -1.26177,-0.56543 -1.26177,-1.26223 0,-0.69771 0.56542,-1.26177 1.26177,-1.26177 0.69727,0 1.26224,0.56406 1.26224,1.26177" />
    <path
       inkscape:connector-curvature="0"
       id="path5128-3-51"
       style="fill:#555e69;fill-opacity:1;fill-rule:nonzero;stroke:none;stroke-width:0.27012503;stroke-opacity:1"
       d="m 117.45407,149.97625 c 0,0.4141 -0.33576,0.75013 -0.75012,0.75013 -0.41385,0 -0.74988,-0.33603 -0.74988,-0.75013 0,-0.41465 0.33603,-0.74987 0.74988,-0.74987 0.41436,0 0.75012,0.33522 0.75012,0.74987" />
    <path
       inkscape:connector-curvature="0"
       id="path5128-9-8"
       style="fill:#f68712;fill-opacity:1;fill-rule:nonzero;stroke:none;stroke-width:0.45453024"
       d="m 121.28199,153.32331 c 0,0.6968 -0.56497,1.26223 -1.26223,1.26223 -0.69634,0 -1.26176,-0.56543 -1.26176,-1.26223 0,-0.69771 0.56542,-1.26177 1.26176,-1.26177 0.69726,0 1.26223,0.56406 1.26223,1.26177" />
    <path
       inkscape:connector-curvature="0"
       id="path5128-3-8"
       style="fill:#555e69;fill-opacity:1;fill-rule:nonzero;stroke:none;stroke-width:0.27012503;stroke-opacity:1"
       d="m 120.76987,153.32546 c 0,0.4141 -0.33575,0.75013 -0.75013,0.75013 -0.41384,0 -0.74987,-0.33603 -0.74987,-0.75013 0,-0.41465 0.33603,-0.74987 0.74987,-0.74987 0.41438,0 0.75013,0.33522 0.75013,0.74987" />
    <path
       inkscape:connector-curvature="0"
       id="path5128-9-6"
       style="fill:#f68712;fill-opacity:1;fill-rule:nonzero;stroke:none;stroke-width:0.45453024"
       d="m 122.79089,159.32745 c 0,0.6968 -0.56496,1.26223 -1.26223,1.26223 -0.69634,0 -1.26176,-0.56543 -1.26176,-1.26223 0,-0.69771 0.56542,-1.26177 1.26176,-1.26177 0.69727,0 1.26223,0.56406 1.26223,1.26177" />
    <path
       inkscape:connector-curvature="0"
       id="path5128-3-03"
       style="fill:#555e69;fill-opacity:1;fill-rule:nonzero;stroke:none;stroke-width:0.27012503;stroke-opacity:1"
       d="m 122.27877,159.3296 c 0,0.4141 -0.33575,0.75013 -0.75012,0.75013 -0.41384,0 -0.74988,-0.33603 -0.74988,-0.75013 0,-0.41465 0.33604,-0.74987 0.74988,-0.74987 0.41437,0 0.75012,0.33522 0.75012,0.74987" />
    <path
       inkscape:connector-curvature="0"
       id="path5128-9-2"
       style="fill:#f68712;fill-opacity:1;fill-rule:nonzero;stroke:none;stroke-width:0.45453024"
       d="m 122.73946,166.08543 c 0,0.6968 -0.56497,1.26223 -1.26224,1.26223 -0.69634,0 -1.26176,-0.56543 -1.26176,-1.26223 0,-0.69771 0.56542,-1.26177 1.26176,-1.26177 0.69727,0 1.26224,0.56406 1.26224,1.26177" />
    <path
       inkscape:connector-curvature="0"
       id="path5128-3-04"
       style="fill:#555e69;fill-opacity:1;fill-rule:nonzero;stroke:none;stroke-width:0.27012503;stroke-opacity:1"
       d="m 122.22733,166.08758 c 0,0.4141 -0.33576,0.75013 -0.75012,0.75013 -0.41384,0 -0.74988,-0.33603 -0.74988,-0.75013 0,-0.41465 0.33604,-0.74987 0.74988,-0.74987 0.41436,0 0.75012,0.33522 0.75012,0.74987" />
    <path
       inkscape:connector-curvature="0"
       id="path5128-9-82"
       style="fill:#f68712;fill-opacity:1;fill-rule:nonzero;stroke:none;stroke-width:0.45453024"
       d="m 126.24737,171.98624 c 0,0.6968 -0.56497,1.26223 -1.26224,1.26223 -0.69634,0 -1.26176,-0.56543 -1.26176,-1.26223 0,-0.69771 0.56542,-1.26177 1.26176,-1.26177 0.69727,0 1.26224,0.56406 1.26224,1.26177" />
    <path
       inkscape:connector-curvature="0"
       id="path5128-3-513"
       style="fill:#555e69;fill-opacity:1;fill-rule:nonzero;stroke:none;stroke-width:0.27012503;stroke-opacity:1"
       d="m 125.73524,171.98839 c 0,0.4141 -0.33576,0.75013 -0.75012,0.75013 -0.41384,0 -0.74988,-0.33603 -0.74988,-0.75013 0,-0.41465 0.33604,-0.74987 0.74988,-0.74987 0.41436,0 0.75012,0.33522 0.75012,0.74987" />
    <text
       xml:space="preserve"
       style="font-style:normal;font-weight:normal;font-size:2.11666656px;line-height:1.25;font-family:sans-serif;letter-spacing:0px;word-spacing:0px;fill:#555e69;fill-opacity:1;stroke:none;stroke-width:0.26458332"
       x="90.721451"
       y="125.79276"
       id="text19710"><tspan
         sodipodi:role="line"
         id="tspan19708"
         x="90.721451"
         y="125.79276"
         style="font-size:2.11666656px;fill:#555e69;fill-opacity:1;stroke-width:0.26458332">TC</tspan></text>
  </g>
</svg>
