<?xml version="1.0" encoding="UTF-8" standalone="no"?>
<!-- Created with Inkscape (http://www.inkscape.org/) -->

<svg
   xmlns:dc="http://purl.org/dc/elements/1.1/"
   xmlns:cc="http://creativecommons.org/ns#"
   xmlns:rdf="http://www.w3.org/1999/02/22-rdf-syntax-ns#"
   xmlns:svg="http://www.w3.org/2000/svg"
   xmlns="http://www.w3.org/2000/svg"
   xmlns:sodipodi="http://sodipodi.sourceforge.net/DTD/sodipodi-0.dtd"
   xmlns:inkscape="http://www.inkscape.org/namespaces/inkscape"
   width="210mm"
   height="297mm"
   viewBox="0 0 210 297"
   version="1.1"
   id="svg2664"
   inkscape:version="0.92.4 (5da689c313, 2019-01-14)"
   sodipodi:docname="drawing.svg">
  <defs
     id="defs2658" />
  <sodipodi:namedview
     id="base"
     pagecolor="#ffffff"
     bordercolor="#666666"
     borderopacity="1.0"
     inkscape:pageopacity="0.0"
     inkscape:pageshadow="2"
     inkscape:zoom="0.35"
     inkscape:cx="-18.571429"
     inkscape:cy="560"
     inkscape:document-units="mm"
     inkscape:current-layer="layer1"
     showgrid="false"
     inkscape:window-width="1920"
     inkscape:window-height="1017"
     inkscape:window-x="-8"
     inkscape:window-y="-8"
     inkscape:window-maximized="1" />
  <metadata
     id="metadata2661">
    <rdf:RDF>
      <cc:Work
         rdf:about="">
        <dc:format>image/svg+xml</dc:format>
        <dc:type
           rdf:resource="http://purl.org/dc/dcmitype/StillImage" />
        <dc:title></dc:title>
      </cc:Work>
    </rdf:RDF>
  </metadata>
  <g
     inkscape:label="Layer 1"
     inkscape:groupmode="layer"
     id="layer1">
    <path
       style="fill:#00ffff;stroke:#00ffff;stroke-width:0.11245094;stroke-miterlimit:4;stroke-dasharray:none"
       d="m -138.40724,161.22395 c -2.90433,-0.34253 -6.90509,-1.36359 -9.38011,-2.39394 -2.99932,-1.24862 -5.31709,-2.79925 -8.0155,-5.36247 l -2.27015,-2.15641 0.60283,-0.60281 0.6028,-0.60281 2.46133,2.38505 c 1.35375,1.31178 3.27195,2.87196 4.26265,3.46708 3.71147,2.22946 10.0239,3.78745 15.34544,3.78745 h 2.93629 v 0.89258 0.89257 l -2.30581,-0.0391 c -1.2682,-0.0215 -3.17609,-0.14174 -4.23977,-0.26719 z"
       id="path20778"
       inkscape:connector-curvature="0" />
    <path
       style="fill:#00ffff;stroke:#00ffff;stroke-width:0.05622547;stroke-miterlimit:4;stroke-dasharray:none"
       d="m 427.28767,201.45388 c -13.08412,-13.19994 -25.12819,-25.36234 -26.76458,-27.02756 -1.6364,-1.66522 -3.45668,-3.42879 -4.04509,-3.91905 l -1.06984,-0.89137 1.2595,-0.043 c 0.94824,-0.0324 1.34125,0.0138 1.59049,0.18676 0.18206,0.12639 4.70926,4.66444 10.06043,10.08455 5.35117,5.42012 17.42043,17.59784 26.82058,27.06161 10.09232,10.16065 17.02374,17.24851 16.92656,17.30858 -0.0905,0.0559 -0.35002,0.3577 -0.57666,0.67056 l -0.41206,0.56883 z"
       id="path20780"
       inkscape:connector-curvature="0" />
    <path
       style="fill:#00ffff;stroke:#00ffff;stroke-width:0.05622547;stroke-miterlimit:4;stroke-dasharray:none"
       d="m 392.26226,167.30793 c -3.19357,-2.16063 -6.83712,-3.5422 -11.2377,-4.26117 -1.54371,-0.25221 -5.58826,-0.2678 -80.06127,-0.30851 l -78.43541,-0.0429 v -0.89106 -0.89106 l 21.38471,0.003 c 17.82794,0.002 21.70639,0.0393 23.31865,0.22166 1.06365,0.12031 2.65356,0.21942 3.53311,0.22024 1.34684,0.001 1.59923,-0.0349 1.59923,-0.2294 0,-0.20836 5.21533,-0.2252 53.44318,-0.17256 40.1297,0.0438 53.73966,0.10221 54.63329,0.23445 6.10205,0.90298 10.71152,2.82424 15.16266,6.31991 l 0.8814,0.69219 -1.47645,-0.0181 -1.47645,-0.0181 z"
       id="path20782"
       inkscape:connector-curvature="0" />
    <path
       style="fill:#00ffff;stroke:#00ffff;stroke-width:0.05622547;stroke-miterlimit:4;stroke-dasharray:none"
       d="m 184.76181,161.80583 0.004,-0.89258 h 18.80653 18.8065 v 0.89258 0.89258 h -18.81076 -18.81079 z"
       id="path20784"
       inkscape:connector-curvature="0" />
    <path
       style="fill:#00ffff;stroke:#00ffff;stroke-width:0.05622547;stroke-miterlimit:4;stroke-dasharray:none"
       d="m 177.15533,161.86162 c -2.2e-4,-0.73496 0.0164,-0.76576 0.46466,-0.85539 0.25569,-0.0511 1.79538,-0.093 3.42154,-0.093 h 2.95669 v 0.89671 0.89671 l -3.42133,-0.0413 -3.42133,-0.0413 z"
       id="path20786"
       inkscape:connector-curvature="0" />
    <path
       style="fill:#00ffff;stroke:#00ffff;stroke-width:0.05622547;stroke-miterlimit:4;stroke-dasharray:none"
       d="m 147.01436,181.59841 -0.61124,-0.57367 7.52872,-7.50754 c 4.77351,-4.76007 7.87554,-7.7388 8.47633,-8.13947 3.0998,-2.06719 7.27897,-3.38989 13.37087,-4.23185 l 0.63225,-0.0874 v 0.81996 c 0,0.45097 -0.0167,0.82026 -0.0372,0.82064 -0.0204,2.6e-4 -0.92956,0.13197 -2.02022,0.29243 -4.27242,0.62857 -7.92089,1.93527 -11.10777,3.97822 -0.76713,0.49178 -2.96307,2.58331 -8.33109,7.93506 l -7.28941,7.26727 z"
       id="path20788"
       inkscape:connector-curvature="0" />
    <path
       style="fill:#00ffff;stroke:#00ffff;stroke-width:0.05622547;stroke-miterlimit:4;stroke-dasharray:none"
       d="m 144.94619,183.67233 -0.58454,-0.59864 0.76631,-0.76632 0.76632,-0.76632 0.53094,0.53094 c 0.29202,0.29202 0.53094,0.59036 0.53094,0.66298 0,0.0726 -0.32071,0.44794 -0.71269,0.83403 l -0.7127,0.70198 z"
       id="path20790"
       inkscape:connector-curvature="0" />
    <path
       style="fill:#00ffff;stroke:#00ffff;stroke-width:0.05622547;stroke-miterlimit:4;stroke-dasharray:none"
       d=""
       id="path20792"
       inkscape:connector-curvature="0" />
    <path
       style="fill:#00ffff;stroke:#00ffff;stroke-width:0.05622547;stroke-miterlimit:4;stroke-dasharray:none"
       d="m 141.51775,186.91776 -0.56385,-0.62412 0.80153,-0.7179 0.80155,-0.71791 0.59648,0.59649 0.5965,0.59649 -0.73432,0.74553 c -0.40389,0.41005 -0.77928,0.74553 -0.83418,0.74553 -0.0549,0 -0.35359,-0.28085 -0.66371,-0.62411 z"
       id="path20794"
       inkscape:connector-curvature="0" />
    <path
       style="fill:#00ffff;stroke:#00ffff;stroke-width:0.05622547;stroke-miterlimit:4;stroke-dasharray:none"
       d="m 136.48262,190.77747 c 2.09423,-2.06594 3.85387,-3.7738 3.91031,-3.79522 0.0564,-0.0214 0.36798,0.23566 0.69236,0.57129 l 0.58978,0.61023 -3.27279,3.18012 -3.27279,3.18012 -1.22727,0.005 -1.22729,0.005 z"
       id="path20798"
       inkscape:connector-curvature="0" />
    <path
       style="fill:#00ffff;stroke:#00ffff;stroke-width:0.05622547;stroke-miterlimit:4;stroke-dasharray:none"
       d="m 115.36263,204.42743 c -2.2737,-0.47167 -4.69654,-1.53404 -6.36222,-2.78975 -1.28688,-0.97013 -4.00886,-3.45118 -6.14794,-5.60379 l -1.92932,-1.94152 0.57473,-0.58859 0.57476,-0.5886 2.69345,2.58092 c 4.42627,4.24137 5.70146,5.25099 7.93658,6.28367 1.80213,0.83265 3.11917,1.11185 5.24467,1.11185 2.74127,0 4.96253,-0.6413 7.58138,-2.18881 1.70357,-1.00668 2.83866,-1.91037 4.46516,-3.55497 l 1.26119,-1.27523 1.26777,0.005 1.26778,0.005 -2.23144,2.18937 c -1.2273,1.20416 -2.69142,2.53271 -3.25361,2.95234 -1.93596,1.44507 -4.27908,2.58078 -6.61138,3.20454 -1.4981,0.40066 -4.85098,0.50593 -6.33156,0.19879 z"
       id="path20800"
       inkscape:connector-curvature="0" />
    <path
       style="fill:#00ffff;stroke:#00ffff;stroke-width:0.05622547;stroke-miterlimit:4;stroke-dasharray:none"
       d="m 97.958357,191.13189 c -2.58019,-2.58397 -2.56415,-2.55161 -1.62832,-3.28775 l 0.40156,-0.31585 2.35151,2.34807 c 1.293333,1.29144 2.351513,2.4256 2.351513,2.52035 0,0.13666 -0.95009,1.09569 -1.08545,1.09569 -0.0185,0 -1.094433,-1.06223 -2.390813,-2.36051 z"
       id="path20802"
       inkscape:connector-curvature="0" />
    <path
       style="fill:#00ffff;stroke:#00ffff;stroke-width:0.05622547;stroke-miterlimit:4;stroke-dasharray:none"
       d="m 87.151987,180.31594 c -4.2948,-4.30063 -8.31078,-8.24059 -8.92442,-8.75547 -2.24666,-1.88504 -5.63904,-4.00949 -8.58822,-5.37829 -0.7584,-0.35201 -1.37893,-0.66544 -1.37893,-0.69652 0,-0.31114 0.51705,-1.44838 0.65849,-1.44838 0.33187,0 5.03511,2.43605 6.52503,3.37964 3.11388,1.97204 4.19073,2.92054 11.01603,9.70298 3.66871,3.64568 7.34534,7.35245 8.17023,8.23727 l 1.49984,1.60875 -0.58468,0.58467 -0.58467,0.58468 z"
       id="path20804"
       inkscape:connector-curvature="0" />
    <path
       style="fill:#00ffff;stroke:#00ffff;stroke-width:0.05622547;stroke-miterlimit:4;stroke-dasharray:none"
       d="m 65.954577,164.67812 c -0.73637,-0.2852 -2.10871,-0.73992 -3.04964,-1.01049 -1.89363,-0.54453 -1.98845,-0.64101 -1.58319,-1.61091 l 0.21868,-0.52335 0.79383,0.22282 c 3.08924,0.86712 5.62864,1.79904 5.62864,2.06562 0,0.2964 -0.45927,1.40869 -0.57402,1.39021 -0.0525,-0.008 -0.69792,-0.24871 -1.4343,-0.5339 z"
       id="path20806"
       inkscape:connector-curvature="0" />
    <path
       style="fill:#00ffff;stroke:#00ffff;stroke-width:0.05622547;stroke-miterlimit:4;stroke-dasharray:none"
       d="m 58.962717,162.68855 c -1.72444,-0.39334 -5.18625,-0.86426 -7.58692,-1.03206 -1.19745,-0.0837 -10.5342,-0.14613 -21.96656,-0.14688 l -19.8838703,-0.001 -0.0504,-0.89358 -0.0504,-0.89358 19.4683003,0.003 19.46833,0.003 1.49622,0.37928 c 1.33217,0.33769 1.5105,0.3538 1.62628,0.14692 0.16526,-0.29531 0.78529,-0.29691 3.0457,-0.008 2.01573,0.25774 5.70759,0.93655 5.9676,1.09723 0.13459,0.0832 0.13274,0.28883 -0.008,0.88103 -0.10094,0.42489 -0.21788,0.76444 -0.25987,0.75455 -0.042,-0.01 -0.61193,-0.14012 -1.26648,-0.28942 z"
       id="path20808"
       inkscape:connector-curvature="0" />
    <path
       style="fill:#00ffff;stroke:#00ffff;stroke-width:0.05622547;stroke-miterlimit:4;stroke-dasharray:none"
       d="m 1.8247967,161.1382 c -0.0519,-0.20661 -0.0502,-0.61078 0.004,-0.89813 l 0.098,-0.52247 3.3771,0.04 3.37711,0.04 v 0.81819 0.8182 l -3.38083,0.04 -3.38083,0.04 z"
       id="path20810"
       inkscape:connector-curvature="0" />
    <path
       style="fill:#00ffff;stroke:#00ffff;stroke-width:0.05622547;stroke-miterlimit:4;stroke-dasharray:none"
       d="m -29.105123,160.61573 -0.88326,-0.89258 h 15.5411 15.5410997 v 0.89258 0.89258 h -14.6578397 -14.65783 z"
       id="path20812"
       inkscape:connector-curvature="0" />
    <path
       style="fill:#00ffff;stroke:#00ffff;stroke-width:0.05622547;stroke-miterlimit:4;stroke-dasharray:none"
       d="m -36.840803,160.61573 v -0.89258 h 2.45925 2.45925 l 0.88326,0.89258 0.88327,0.89258 h -3.34252 -3.34251 z"
       id="path20814"
       inkscape:connector-curvature="0" />
    <path
       style="fill:#00ffff;stroke:#00ffff;stroke-width:0.05622547;stroke-miterlimit:4;stroke-dasharray:none"
       d="m -44.411813,161.27299 c -0.11611,-0.30257 -0.11611,-1.01195 0,-1.31453 0.0735,-0.19161 0.35145,-0.23531 1.49641,-0.23531 1.50909,0 1.65838,0.12727 0.66377,0.56589 -0.51271,0.22609 -0.5211,0.24093 -0.1678,0.2966 0.46389,0.0731 0.68977,0.25364 0.7882,0.63001 0.0721,0.27554 -0.004,0.29266 -1.30688,0.29266 -1.12425,0 -1.40032,-0.0441 -1.4737,-0.23532 z"
       id="path20816"
       inkscape:connector-curvature="0" />
    <path
       style="fill:#00ffff;stroke:#00ffff;stroke-width:0.05622547;stroke-miterlimit:4;stroke-dasharray:none"
       d="m -39.662763,161.18035 c 0.0568,-0.18781 0.1627,-0.40508 0.23532,-0.4828 0.19895,-0.21294 0.15899,-0.37935 -0.0911,-0.37935 -0.12397,0 -0.22315,-0.13223 -0.22315,-0.29753 0,-0.26911 0.0992,-0.29752 1.03851,-0.29752 0.96745,0 1.04454,0.024 1.12669,0.35132 0.0485,0.19323 0.0665,0.57815 0.04,0.85539 l -0.0481,0.50406 -1.09071,0.0439 c -1.07647,0.0434 -1.08935,0.0395 -0.98743,-0.29752 z"
       id="path20818"
       inkscape:connector-curvature="0" />
    <path
       style="fill:#00ffff;stroke:#00ffff;stroke-width:0.05622547;stroke-miterlimit:4;stroke-dasharray:none"
       d="m -41.286593,161.14163 c -0.34494,-0.52644 -0.29967,-0.67467 0.20603,-0.67467 0.30053,0 0.44629,-0.074 0.44629,-0.22657 0,-0.19836 0.0463,-0.19623 0.37191,0.0171 0.27547,0.18049 0.37191,0.37427 0.37191,0.74724 0,0.48583 -0.0203,0.50356 -0.57794,0.50356 -0.45012,0 -0.63109,-0.0811 -0.8182,-0.36667 z"
       id="path20820"
       inkscape:connector-curvature="0" />
    <path
       style="fill:#00ffff;stroke:#00ffff;stroke-width:0.05622547;stroke-miterlimit:4;stroke-dasharray:none"
       d="m -85.263233,161.08061 c 0,-0.23523 -0.0418,-0.63689 -0.093,-0.89258 l -0.093,-0.46488 h 20.13882 20.13882 v 0.89258 0.89258 h -20.04584 -20.04584 z"
       id="path20822"
       inkscape:connector-curvature="0" />
    <path
       style="fill:#00ffff;stroke:#00ffff;stroke-width:0.05622547;stroke-miterlimit:4;stroke-dasharray:none"
       d="m -92.996893,160.95044 c 0.001,-0.30682 0.0424,-0.70848 0.0917,-0.89257 0.0896,-0.33442 0.0926,-0.33472 3.40556,-0.33472 h 3.31587 l 0.10135,0.73696 c 0.0557,0.40533 0.0581,0.80699 0.005,0.89258 -0.0624,0.101 -1.29401,0.15562 -3.50895,0.15562 h -3.41278 z"
       id="path20824"
       inkscape:connector-curvature="0" />
    <path
       style="fill:#00ffff;stroke:#00ffff;stroke-width:0.05622547;stroke-miterlimit:4;stroke-dasharray:none"
       d="m -112.56129,160.61573 0.88327,-0.89258 h 9.05794 c 8.198537,0 9.049367,0.0223 8.967637,0.23531 -0.0497,0.12942 -0.0903,0.53108 -0.0903,0.89258 v 0.65727 h -9.850907 -9.8509 z"
       id="path20826"
       inkscape:connector-curvature="0" />
    <path
       style="fill:#00ffff;stroke:#00ffff;stroke-width:0.05622547;stroke-miterlimit:4;stroke-dasharray:none"
       d="m -123.34662,160.61573 v -0.89258 h 5.38801 5.38801 l -0.88327,0.89258 -0.88326,0.89258 h -4.50475 -4.50474 z"
       id="path20828"
       inkscape:connector-curvature="0" />
    <path
       style="fill:#00ffff;stroke:#00ffff;stroke-width:0.05622547;stroke-miterlimit:4;stroke-dasharray:none"
       d="m -131.00732,161.06478 c -0.0543,-0.24698 -0.0543,-0.65113 0,-0.8981 l 0.0986,-0.44906 3.37196,0.0399 3.37193,0.04 v 0.8182 0.8182 l -3.37193,0.04 -3.37196,0.04 z"
       id="path20830"
       inkscape:connector-curvature="0" />
    <path
       style="fill:#00ffff;stroke:#00ffff;stroke-width:0.05622547;stroke-miterlimit:4;stroke-dasharray:none"
       d="m -161.05597,148.27052 -2.35672,-2.36017 0.24961,-0.38093 c 0.13726,-0.20951 0.42132,-0.49345 0.63121,-0.63097 l 0.38161,-0.25005 2.37996,2.37994 2.37992,2.37994 -0.39946,0.47475 c -0.77674,0.92309 -0.69292,0.96446 -3.26613,-1.61251 z"
       id="path20832"
       inkscape:connector-curvature="0" />
    <path
       style="fill:#00ffff;stroke:#00ffff;stroke-width:0.05622547;stroke-miterlimit:4;stroke-dasharray:none"
       d="m -168.01872,141.30778 -3.97872,-3.98078 0.63817,-0.62632 0.63818,-0.62633 3.97872,3.98078 3.97873,3.98078 -0.63818,0.62632 -0.63817,0.62633 z"
       id="path20834"
       inkscape:connector-curvature="0" />
    <path
       style="fill:#00ffff;stroke:#00ffff;stroke-width:0.05622547;stroke-miterlimit:4;stroke-dasharray:none"
       d="m -175.03287,134.29362 -2.36776,-2.37124 0.6305,-0.63051 0.63051,-0.63051 2.37124,2.36775 c 1.30419,1.30227 2.37123,2.41643 2.37123,2.4759 0,0.18964 -0.91655,1.15984 -1.0957,1.15984 -0.0948,0 -1.23777,-1.06706 -2.54002,-2.37123 z"
       id="path20836"
       inkscape:connector-curvature="0" />
    <path
       style="fill:#00ffff;stroke:#00ffff;stroke-width:0.05622547;stroke-miterlimit:4;stroke-dasharray:none"
       d="m -181.8669,127.45959 -3.84765,-3.84978 0.63119,-0.63119 0.63119,-0.63119 3.90374,3.90166 3.90377,3.90166 -0.62849,0.57931 c -0.34565,0.31862 -0.65493,0.57931 -0.68728,0.57931 -0.0324,0 -1.79025,-1.7324 -3.90647,-3.84978 z"
       id="path20838"
       inkscape:connector-curvature="0" />
    <path
       style="fill:#00ffff;stroke:#00ffff;stroke-width:0.05622547;stroke-miterlimit:4;stroke-dasharray:none"
       d="m -188.70874,120.61778 -2.35738,-2.36085 0.24958,-0.38093 c 0.13729,-0.20952 0.42135,-0.49346 0.63124,-0.63099 l 0.38161,-0.25004 2.39353,2.39352 2.39353,2.39353 -0.58423,0.59831 c -0.32134,0.32906 -0.62164,0.5983 -0.66736,0.5983 -0.0457,0 -1.14395,-1.06238 -2.44052,-2.36085 z"
       id="path20840"
       inkscape:connector-curvature="0" />
    <path
       style="fill:#00ffff;stroke:#00ffff;stroke-width:0.05622547;stroke-miterlimit:4;stroke-dasharray:none"
       d="m -195.48749,113.83899 -3.78198,-3.78416 0.6315,-0.63152 0.63154,-0.63152 3.79346,3.79346 3.79347,3.79347 -0.62223,0.62222 c -0.34223,0.34222 -0.63158,0.62221 -0.64301,0.62221 -0.0114,0 -1.72268,-1.70287 -3.80275,-3.78416 z"
       id="path20842"
       inkscape:connector-curvature="0" />
    <path
       style="fill:#00ffff;stroke:#00ffff;stroke-width:0.05622547;stroke-miterlimit:4;stroke-dasharray:none"
       d="m -202.24585,107.08066 c -2.59707,-2.60088 -2.58593,-2.57739 -1.56652,-3.30329 l 0.46207,-0.32902 2.3981,2.39811 2.39811,2.39811 -0.58423,0.5983 c -0.32131,0.32907 -0.62164,0.59831 -0.66736,0.59831 -0.0457,0 -1.14379,-1.06223 -2.44017,-2.36052 z"
       id="path20844"
       inkscape:connector-curvature="0" />
    <path
       style="fill:#00ffff;stroke:#00ffff;stroke-width:0.05622547;stroke-miterlimit:4;stroke-dasharray:none"
       d="m -208.85199,100.4745 -3.60895,-3.6112 0.63818,-0.626324 0.63817,-0.626327 3.61344,3.615687 3.61342,3.615684 -0.62182,0.62184 c -0.34203,0.34201 -0.63122,0.62184 -0.64268,0.62184 -0.0114,0 -1.64486,-1.62504 -3.62976,-3.6112 z"
       id="path20846"
       inkscape:connector-curvature="0" />
    <path
       style="fill:#00ffff;stroke:#00ffff;stroke-width:0.05622547;stroke-miterlimit:4;stroke-dasharray:none"
       d="m -215.48774,93.838774 -2.359,-2.362475 0.63053,-0.630526 0.63053,-0.630526 2.36246,2.359014 c 1.29937,1.297456 2.36246,2.430344 2.36246,2.517529 0,0.195157 -0.92672,1.109459 -1.12453,1.109459 -0.0789,0 -1.20499,-1.063114 -2.50245,-2.362475 z"
       id="path20848"
       inkscape:connector-curvature="0" />
    <path
       style="fill:#00ffff;stroke:#00ffff;stroke-width:0.05622547;stroke-miterlimit:4;stroke-dasharray:none"
       d="m -221.91103,87.415448 -3.52322,-3.525507 0.63148,-0.631476 0.63148,-0.631476 3.52105,3.551529 3.52105,3.551531 -0.62931,0.605454 -0.62931,0.605451 z"
       id="path20850"
       inkscape:connector-curvature="0" />
    <path
       style="fill:#00ffff;stroke:#00ffff;stroke-width:0.05622547;stroke-miterlimit:4;stroke-dasharray:none"
       d="m -227.18413,82.142355 -1.10902,-1.116494 0.62849,-0.628518 0.62852,-0.628515 1.11651,1.109043 c 0.61407,0.609973 1.11649,1.149771 1.11649,1.199544 0,0.11801 -1.06344,1.181434 -1.18144,1.181434 -0.0498,0 -0.58958,-0.502423 -1.19955,-1.116494 z"
       id="path20852"
       inkscape:connector-curvature="0" />
  </g>
</svg>
