<?xml version="1.0" encoding="UTF-8"?>
<svg xmlns="http://www.w3.org/2000/svg" width="800.000" height="600.000" viewBox="0.0 0.0 800.000 600.000" version="1.1">
  <title>Produce by Acme CAD Converter</title>
  <desc>Produce by Acme CAD Converter</desc>
<path d="M464.71 358.82L462.14 358.65 462.35 357.08 464.71 357.24 464.71 358.82Z"
fill-rule="nonzero" fill="RGB(165,82,165)"/>
<path d="M462.14 358.65L459.62 358.14 460.02 356.62 462.35 357.08 462.14 358.65Z"
fill-rule="nonzero" fill="RGB(165,82,165)"/>
<path d="M459.62 358.14L457.18 357.31 457.78 355.86 460.02 356.62 459.62 358.14Z"
fill-rule="nonzero" fill="RGB(165,82,165)"/>
<path d="M457.18 357.31L454.87 356.17 455.66 354.81 457.78 355.86 457.18 357.31Z"
fill-rule="nonzero" fill="RGB(165,82,165)"/>
<path d="M454.87 356.17L452.73 354.74 453.69 353.49 455.66 354.81 454.87 356.17Z"
fill-rule="nonzero" fill="RGB(165,82,165)"/>
<path d="M452.73 354.74L450.79 353.04 451.9 351.93 453.69 353.49 452.73 354.74Z"
fill-rule="nonzero" fill="RGB(165,82,165)"/>
<path d="M451.9 351.93L450.79 353.04 393.58 295.84 394.7 294.72 451.9 351.93Z"
fill-rule="evenodd" fill="RGB(165,82,165)"/>
<path d="M394.7 294.72L391.77 292.07 390.77 293.29 393.58 295.84 394.7 294.72Z"
fill-rule="nonzero" fill="RGB(165,82,165)"/>
<path d="M391.77 292.07L388.6 289.72 387.73 291.03 390.77 293.29 391.77 292.07Z"
fill-rule="nonzero" fill="RGB(165,82,165)"/>
<path d="M388.6 289.72L385.22 287.69 384.48 289.08 387.73 291.03 388.6 289.72Z"
fill-rule="nonzero" fill="RGB(165,82,165)"/>
<path d="M385.22 287.69L381.65 286.01 381.05 287.46 384.48 289.08 385.22 287.69Z"
fill-rule="nonzero" fill="RGB(165,82,165)"/>
<path d="M381.65 286.01L377.94 284.68 377.48 286.19 381.05 287.46 381.65 286.01Z"
fill-rule="nonzero" fill="RGB(165,82,165)"/>
<path d="M377.94 284.68L374.11 283.72 373.8 285.27 377.48 286.19 377.94 284.68Z"
fill-rule="nonzero" fill="RGB(165,82,165)"/>
<path d="M374.11 283.72L370.21 283.14 370.05 284.71 373.8 285.27 374.11 283.72Z"
fill-rule="nonzero" fill="RGB(165,82,165)"/>
<path d="M370.21 283.14L366.27 282.95 366.27 284.52 370.05 284.71 370.21 283.14Z"
fill-rule="nonzero" fill="RGB(165,82,165)"/>
<path d="M366.27 282.95L366.27 284.52 282.78 284.52 282.78 282.95 366.27 282.95Z"
fill-rule="evenodd" fill="RGB(165,82,165)"/>
<path d="M282.78 284.52L278.84 284.33 278.99 282.76 282.78 282.95 282.78 284.52Z"
fill-rule="nonzero" fill="RGB(165,82,165)"/>
<path d="M278.84 284.33L274.94 283.75 275.25 282.2 278.99 282.76 278.84 284.33Z"
fill-rule="nonzero" fill="RGB(165,82,165)"/>
<path d="M274.94 283.75L271.11 282.79 271.57 281.28 275.25 282.2 274.94 283.75Z"
fill-rule="nonzero" fill="RGB(165,82,165)"/>
<path d="M271.11 282.79L267.4 281.46 268 280.01 271.57 281.28 271.11 282.79Z"
fill-rule="nonzero" fill="RGB(165,82,165)"/>
<path d="M267.4 281.46L263.83 279.78 264.57 278.39 268 280.01 267.4 281.46Z"
fill-rule="nonzero" fill="RGB(165,82,165)"/>
<path d="M263.83 279.78L260.44 277.75 261.32 276.44 264.57 278.39 263.83 279.78Z"
fill-rule="nonzero" fill="RGB(165,82,165)"/>
<path d="M260.44 277.75L257.28 275.4 258.28 274.18 261.32 276.44 260.44 277.75Z"
fill-rule="nonzero" fill="RGB(165,82,165)"/>
<path d="M257.28 275.4L254.35 272.75 255.47 271.63 258.28 274.18 257.28 275.4Z"
fill-rule="nonzero" fill="RGB(165,82,165)"/>
<path d="M255.47 271.63L254.35 272.75 158.58 176.98 159.69 175.86 255.47 271.63Z"
fill-rule="evenodd" fill="RGB(165,82,165)"/>
<path d="M577.98 396.02L576.86 397.13 541.43 361.43 542.55 360.32 577.98 396.02Z"
fill-rule="evenodd" fill="RGB(165,82,165)"/>
<path d="M542.55 360.32L541 359.03 540.12 360.34 541.43 361.43 542.55 360.32Z"
fill-rule="nonzero" fill="RGB(165,82,165)"/>
<path d="M541 359.03L539.22 358.08 538.61 359.53 540.12 360.34 541 359.03Z"
fill-rule="nonzero" fill="RGB(165,82,165)"/>
<path d="M539.22 358.08L537.29 357.49 536.98 359.03 538.61 359.53 539.22 358.08Z"
fill-rule="nonzero" fill="RGB(165,82,165)"/>
<path d="M537.29 357.49L535.28 357.29 535.28 358.86 536.98 359.03 537.29 357.49Z"
fill-rule="nonzero" fill="RGB(165,82,165)"/>
<path d="M535.28 357.29L535.28 358.86 464.71 358.82 464.71 357.24 535.28 357.29Z"
fill-rule="evenodd" fill="RGB(165,82,165)"/>
<path d="M464.71 357.24L464.71 358.82 411.36 358.78 411.36 357.2 464.71 357.24Z"
fill-rule="evenodd" fill="RGB(165,82,165)"/>
<path d="M411.36 357.2L408.8 357.37 409.01 358.93 411.36 358.78 411.36 357.2Z"
fill-rule="nonzero" fill="RGB(165,82,165)"/>
<path d="M408.8 357.37L406.29 357.86 406.69 359.39 409.01 358.93 408.8 357.37Z"
fill-rule="nonzero" fill="RGB(165,82,165)"/>
<path d="M406.29 357.86L403.86 358.69 404.46 360.14 406.69 359.39 406.29 357.86Z"
fill-rule="nonzero" fill="RGB(165,82,165)"/>
<path d="M403.86 358.69L401.55 359.81 402.34 361.18 404.46 360.14 403.86 358.69Z"
fill-rule="nonzero" fill="RGB(165,82,165)"/>
<path d="M401.55 359.81L399.42 361.23 400.37 362.49 402.34 361.18 401.55 359.81Z"
fill-rule="nonzero" fill="RGB(165,82,165)"/>
<path d="M399.42 361.23L397.48 362.92 398.59 364.04 400.37 362.49 399.42 361.23Z"
fill-rule="nonzero" fill="RGB(165,82,165)"/>
<path d="M397.48 362.92L398.59 364.04 381.1 381.39 379.99 380.27 397.48 362.92Z"
fill-rule="evenodd" fill="RGB(165,82,165)"/>
<path d="M381.1 381.39L379.55 382.65 378.68 381.34 379.99 380.27 381.1 381.39Z"
fill-rule="nonzero" fill="RGB(165,82,165)"/>
<path d="M379.55 382.65L377.78 383.59 377.18 382.13 378.68 381.34 379.55 382.65Z"
fill-rule="nonzero" fill="RGB(165,82,165)"/>
<path d="M377.78 383.59L375.86 384.17 375.56 382.62 377.18 382.13 377.78 383.59Z"
fill-rule="nonzero" fill="RGB(165,82,165)"/>
<path d="M375.86 384.17L373.87 384.36 373.87 382.78 375.56 382.62 375.86 384.17Z"
fill-rule="nonzero" fill="RGB(165,82,165)"/>
<path d="M373.87 384.36L371.88 384.16 372.19 382.62 373.87 382.78 373.87 384.36Z"
fill-rule="nonzero" fill="RGB(165,82,165)"/>
<path d="M371.88 384.16L369.96 383.58 370.56 382.12 372.19 382.62 371.88 384.16Z"
fill-rule="nonzero" fill="RGB(165,82,165)"/>
<path d="M369.96 383.58L368.19 382.64 369.07 381.33 370.56 382.12 369.96 383.58Z"
fill-rule="nonzero" fill="RGB(165,82,165)"/>
<path d="M368.19 382.64L366.65 381.37 367.76 380.25 369.07 381.33 368.19 382.64Z"
fill-rule="nonzero" fill="RGB(165,82,165)"/>
<path d="M367.76 380.25L366.65 381.37 348.63 363.4 349.75 362.28 367.76 380.25Z"
fill-rule="evenodd" fill="RGB(165,82,165)"/>
<path d="M349.75 362.28L347.73 360.52 346.77 361.78 348.63 363.4 349.75 362.28Z"
fill-rule="nonzero" fill="RGB(165,82,165)"/>
<path d="M347.73 360.52L345.48 359.05 344.71 360.43 346.77 361.78 347.73 360.52Z"
fill-rule="nonzero" fill="RGB(165,82,165)"/>
<path d="M345.48 359.05L343.07 357.9 342.49 359.37 344.71 360.43 345.48 359.05Z"
fill-rule="nonzero" fill="RGB(165,82,165)"/>
<path d="M343.07 357.9L340.51 357.09 340.14 358.62 342.49 359.37 343.07 357.9Z"
fill-rule="nonzero" fill="RGB(165,82,165)"/>
<path d="M340.51 357.09L337.87 356.63 337.71 358.2 340.14 358.62 340.51 357.09Z"
fill-rule="nonzero" fill="RGB(165,82,165)"/>
<path d="M337.87 356.63L335.19 356.54 335.25 358.11 337.71 358.2 337.87 356.63Z"
fill-rule="nonzero" fill="RGB(165,82,165)"/>
<path d="M335.19 356.54L335.25 358.11 219.61 358.1 219.61 356.52 335.19 356.54Z"
fill-rule="evenodd" fill="RGB(165,82,165)"/>
<path d="M219.61 358.1L217.04 357.93 217.24 356.37 219.61 356.52 219.61 358.1Z"
fill-rule="nonzero" fill="RGB(165,82,165)"/>
<path d="M217.04 357.93L214.51 357.43 214.92 355.91 217.24 356.37 217.04 357.93Z"
fill-rule="nonzero" fill="RGB(165,82,165)"/>
<path d="M214.51 357.43L212.07 356.6 212.67 355.14 214.92 355.91 214.51 357.43Z"
fill-rule="nonzero" fill="RGB(165,82,165)"/>
<path d="M212.07 356.6L209.75 355.46 210.54 354.09 212.67 355.14 212.07 356.6Z"
fill-rule="nonzero" fill="RGB(165,82,165)"/>
<path d="M209.75 355.46L207.61 354.03 208.57 352.78 210.54 354.09 209.75 355.46Z"
fill-rule="nonzero" fill="RGB(165,82,165)"/>
<path d="M207.61 354.03L205.67 352.33 206.79 351.21 208.57 352.78 207.61 354.03Z"
fill-rule="nonzero" fill="RGB(165,82,165)"/>
<path d="M206.79 351.21L205.67 352.33 162.2 308.86 163.32 307.74 206.79 351.21Z"
fill-rule="evenodd" fill="RGB(165,82,165)"/>
<path d="M242.49 274.16L243.6 273.05 321.79 351.24 320.68 352.35 242.49 274.16Z"
fill-rule="evenodd" fill="RGB(165,82,165)"/>
<path d="M320.68 352.35L322.7 354.11 323.65 352.86 321.79 351.24 320.68 352.35Z"
fill-rule="nonzero" fill="RGB(165,82,165)"/>
<path d="M322.7 354.11L324.94 355.59 325.72 354.21 323.65 352.86 322.7 354.11Z"
fill-rule="nonzero" fill="RGB(165,82,165)"/>
<path d="M324.94 355.59L327.36 356.74 327.94 355.28 325.72 354.21 324.94 355.59Z"
fill-rule="nonzero" fill="RGB(165,82,165)"/>
<path d="M327.36 356.74L329.92 357.56 330.3 356.02 327.94 355.28 327.36 356.74Z"
fill-rule="nonzero" fill="RGB(165,82,165)"/>
<path d="M329.92 357.56L332.56 358.02 332.73 356.45 330.3 356.02 329.92 357.56Z"
fill-rule="nonzero" fill="RGB(165,82,165)"/>
<path d="M332.56 358.02L335.25 358.11 335.19 356.54 332.73 356.45 332.56 358.02Z"
fill-rule="nonzero" fill="RGB(165,82,165)"/>
</svg>
