<?xml version="1.0" standalone="no"?>
<svg viewBox="0 0 1024 768" version="1.1" xmlns="http://www.w3.org/2000/svg" xmlns:xlink="http://www.w3.org/1999/xlink" stroke-linecap="round" stroke-linejoin="round" fill-rule="evenodd" xml:space="preserve" >
<defs >
<clipPath id="clipId0" >
<path d="M0,768 1024,768 1024,0 0,0 z" />
</clipPath>
</defs>
<g clip-path="url(#clipId0)" fill="none" stroke="rgb(0,0,0)" stroke-width="0.1" />
<g clip-path="url(#clipId0)" fill="rgb(255,0,0)" stroke="rgb(255,0,0)" stroke-width="0.25" >
<path d="M999.596,620.258 994.28,624.245 874.656,464.746 879.972,460.759 z" />
<polygon points="879.972,460.759 870.987,449.983 866.109,454.496 874.656,464.746 " />
<polygon points="870.987,449.983 860.941,440.188 856.553,445.178 866.109,454.496 " />
<polygon points="860.941,440.188 849.941,431.478 846.089,436.894 856.553,445.178 " />
<polygon points="849.941,431.478 838.103,423.946 834.829,429.729 846.089,436.894 " />
<polygon points="838.103,423.946 825.554,417.671 822.892,423.76 834.829,429.729 " />
<polygon points="825.554,417.671 812.425,412.72 810.404,419.051 822.892,423.76 " />
<polygon points="812.425,412.72 798.857,409.146 797.497,415.651 810.404,419.051 " />
<polygon points="798.857,409.146 784.994,406.986 784.31,413.596 797.497,415.651 " />
<polygon points="784.994,406.986 770.981,406.263 770.981,412.909 784.31,413.596 " />
<path d="M770.981,406.263 770.981,412.909 657.633,412.909 657.633,406.263 z" />
<polygon points="657.633,406.263 648.735,406.968 649.782,413.531 657.633,412.909 " />
<polygon points="648.735,406.968 640.06,409.066 642.128,415.382 649.782,413.531 " />
<polygon points="640.06,409.066 631.824,412.504 634.86,418.416 642.128,415.382 " />
<polygon points="631.824,412.504 624.231,417.196 628.161,422.556 634.86,418.416 " />
<polygon points="624.231,417.196 617.473,423.026 622.198,427.7 628.161,422.556 " />
<polygon points="617.473,423.026 611.717,429.847 617.119,433.718 622.198,427.7 " />
<polygon points="611.717,429.847 607.107,437.49 613.052,440.462 617.119,433.718 " />
<path d="M607.107,437.49 613.052,440.462 608.842,448.881 602.898,445.909 z" />
<polygon points="608.842,448.881 604.232,456.524 598.83,452.653 602.898,445.909 " />
<polygon points="604.232,456.524 598.476,463.345 593.752,458.672 598.83,452.653 " />
<polygon points="598.476,463.345 591.718,469.175 587.788,463.815 593.752,458.672 " />
<polygon points="591.718,469.175 584.126,473.867 581.089,467.955 587.788,463.815 " />
<polygon points="584.126,473.867 575.889,477.305 573.822,470.989 581.089,467.955 " />
<polygon points="575.889,477.305 567.214,479.403 566.167,472.84 573.822,470.989 " />
<polygon points="567.214,479.403 558.316,480.108 558.316,473.462 566.167,472.84 " />
<polygon points="558.316,480.108 549.419,479.403 550.466,472.84 558.316,473.462 " />
<polygon points="549.419,479.403 540.744,477.305 542.811,470.989 550.466,472.84 " />
<polygon points="540.744,477.305 532.507,473.867 535.544,467.955 542.811,470.989 " />
<polygon points="532.507,473.867 524.915,469.175 528.845,463.815 535.544,467.955 " />
<polygon points="524.915,469.175 518.157,463.345 522.881,458.672 528.845,463.815 " />
<polygon points="518.157,463.345 512.401,456.524 517.802,452.653 522.881,458.672 " />
<polygon points="512.401,456.524 507.791,448.881 513.735,445.909 517.802,452.653 " />
<path d="M513.735,445.909 507.791,448.881 503.581,440.462 509.525,437.49 z" />
<polygon points="509.525,437.49 504.916,429.847 499.514,433.718 503.581,440.462 " />
<polygon points="504.916,429.847 499.16,423.026 494.435,427.7 499.514,433.718 " />
<polygon points="499.16,423.026 492.401,417.196 488.472,422.556 494.435,427.7 " />
<polygon points="492.401,417.196 484.809,412.504 481.773,418.416 488.472,422.556 " />
<polygon points="484.809,412.504 476.573,409.066 474.505,415.382 481.773,418.416 " />
<polygon points="476.573,409.066 467.897,406.968 466.851,413.531 474.505,415.382 " />
<polygon points="467.897,406.968 459,406.263 459,412.909 466.851,413.531 " />
<path d="M459,406.263 459,412.909 334.249,412.909 334.249,406.263 z" />
<polygon points="334.249,406.263 320.895,406.919 321.547,413.533 334.249,412.909 " />
<polygon points="320.895,406.919 307.67,408.881 308.967,415.399 321.547,413.533 " />
<polygon points="307.67,408.881 294.701,412.13 296.63,418.489 308.967,415.399 " />
<polygon points="294.701,412.13 282.113,416.634 284.656,422.774 296.63,418.489 " />
<polygon points="282.113,416.634 270.027,422.35 273.159,428.211 284.656,422.774 " />
<polygon points="270.027,422.35 258.559,429.224 262.251,434.749 273.159,428.211 " />
<polygon points="258.559,429.224 247.82,437.188 252.036,442.325 262.251,434.749 " />
<polygon points="247.82,437.188 237.914,446.167 242.613,450.866 252.036,442.325 " />
<path d="M237.914,446.167 242.613,450.866 164.199,529.28 159.5,524.58 z" />
<polygon points="164.199,529.28 157.459,535.036 153.553,529.66 159.5,524.58 " />
<polygon points="157.459,535.036 149.901,539.668 146.884,533.746 153.553,529.66 " />
<polygon points="149.901,539.668 141.712,543.06 139.658,536.74 146.884,533.746 " />
<polygon points="141.712,543.06 133.092,545.129 132.053,538.565 139.658,536.74 " />
<polygon points="133.092,545.129 124.256,545.825 124.256,539.179 132.053,538.565 " />
<path d="M124.256,539.179 124.256,545.825 66.5284,545.825 66.5284,539.179 z" />
<polygon points="66.5284,545.825 57.6915,545.129 58.7312,538.565 66.5284,539.179 " />
<polygon points="57.6915,545.129 49.0723,543.06 51.1259,536.74 58.7312,538.565 " />
<polygon points="49.0723,543.06 40.8828,539.668 43.9,533.746 51.1259,536.74 " />
<polygon points="40.8828,539.668 33.3249,535.036 37.2312,529.66 43.9,533.746 " />
<polygon points="33.3249,535.036 26.5845,529.28 31.2838,524.58 37.2312,529.66 " />
<polygon points="26.5845,529.28 20.8277,522.539 26.2042,518.633 31.2838,524.58 " />
<polygon points="20.8277,522.539 16.1962,514.981 22.1176,511.964 26.2042,518.633 " />
<polygon points="16.1962,514.981 12.804,506.792 19.1245,504.738 22.1176,511.964 " />
<polygon points="12.804,506.792 10.7347,498.173 17.2987,497.133 19.1245,504.738 " />
<polygon points="10.7347,498.173 10.0392,489.336 16.685,489.336 17.2987,497.133 " />
<path d="M16.685,489.336 10.0392,489.336 10.0392,143.755 16.685,143.755 z" />
</g>
<g clip-path="url(#clipId0)" fill="rgb(0,0,255)" stroke="rgb(0,0,255)" stroke-width="0.25" >
<polygon points="920.512,542.502 921.325,547.636 927.645,545.582 927.157,542.502 " />
<polygon points="921.325,547.636 923.685,552.268 929.061,548.361 927.645,545.582 " />
<polygon points="923.685,552.268 927.36,555.943 931.267,550.567 929.061,548.361 " />
<polygon points="927.36,555.943 931.992,558.303 934.046,551.983 931.267,550.567 " />
<polygon points="931.992,558.303 937.126,559.116 937.126,552.471 934.046,551.983 " />
<polygon points="937.126,559.116 942.26,558.303 940.207,551.983 937.126,552.471 " />
<polygon points="942.26,558.303 946.892,555.943 942.986,550.567 940.207,551.983 " />
<polygon points="946.892,555.943 950.567,552.268 945.191,548.361 942.986,550.567 " />
<polygon points="950.567,552.268 952.927,547.636 946.607,545.582 945.191,548.361 " />
<polygon points="952.927,547.636 953.741,542.502 947.095,542.502 946.607,545.582 " />
<polygon points="953.741,542.502 952.927,537.368 946.607,539.421 947.095,542.502 " />
<polygon points="952.927,537.368 950.567,532.736 945.191,536.643 946.607,539.421 " />
<polygon points="950.567,532.736 946.892,529.061 942.986,534.437 945.191,536.643 " />
<polygon points="946.892,529.061 942.26,526.701 940.207,533.021 942.986,534.437 " />
<polygon points="942.26,526.701 937.126,525.887 937.126,532.533 940.207,533.021 " />
<polygon points="937.126,525.887 931.992,526.701 934.046,533.021 937.126,532.533 " />
<polygon points="931.992,526.701 927.36,529.061 931.267,534.437 934.046,533.021 " />
<polygon points="927.36,529.061 923.685,532.736 929.061,536.643 931.267,534.437 " />
<polygon points="923.685,532.736 921.325,537.368 927.645,539.421 929.061,536.643 " />
<polygon points="921.325,537.368 920.512,542.502 927.157,542.502 927.645,539.421 " />
</g>
<g clip-path="url(#clipId0)" fill="rgb(0,0,0)" stroke="rgb(0,0,0)" stroke-width="0.25" >
<polygon points="927.556,542.502 928.838,547.287 937.126,542.502 937.126,542.502 " />
<polygon points="928.838,547.287 932.341,550.79 937.126,542.502 937.126,542.502 " />
<polygon points="932.341,550.79 937.126,552.072 937.126,542.502 937.126,542.502 " />
<polygon points="937.126,552.072 941.911,550.79 937.126,542.502 937.126,542.502 " />
<polygon points="941.911,550.79 945.414,547.287 937.126,542.502 937.126,542.502 " />
<polygon points="945.414,547.287 946.696,542.502 937.126,542.502 937.126,542.502 " />
<polygon points="946.696,542.502 945.414,537.717 937.126,542.502 937.126,542.502 " />
<polygon points="945.414,537.717 941.911,534.214 937.126,542.502 937.126,542.502 " />
<polygon points="941.911,534.214 937.126,532.932 937.126,542.502 937.126,542.502 " />
<polygon points="937.126,532.932 932.341,534.214 937.126,542.502 937.126,542.502 " />
<polygon points="932.341,534.214 928.838,537.717 937.126,542.502 937.126,542.502 " />
<polygon points="928.838,537.717 927.556,542.502 937.126,542.502 937.126,542.502 " />
</g>
<g clip-path="url(#clipId0)" fill="rgb(255,255,0)" stroke="rgb(255,255,0)" stroke-width="0" >
<text transform="matrix(10.6333 0 -0 10.6333 957.041 530.796)" font-family="Arial,'sans-serif'" font-size="1.39636" >Estaci&#243;n</text>
</g>
<g clip-path="url(#clipId0)" fill="rgb(0,0,255)" stroke="rgb(0,0,255)" stroke-width="0.25" >
<polygon points="697.693,409.586 698.506,414.72 704.826,412.667 704.338,409.586 " />
<polygon points="698.506,414.72 700.866,419.352 706.242,415.446 704.826,412.667 " />
<polygon points="700.866,419.352 704.541,423.028 708.448,417.651 706.242,415.446 " />
<polygon points="704.541,423.028 709.173,425.388 711.227,419.067 708.448,417.651 " />
<polygon points="709.173,425.388 714.307,426.201 714.307,419.555 711.227,419.067 " />
<polygon points="714.307,426.201 719.441,425.388 717.388,419.067 714.307,419.555 " />
<polygon points="719.441,425.388 724.073,423.028 720.167,417.651 717.388,419.067 " />
<polygon points="724.073,423.028 727.749,419.352 722.372,415.446 720.167,417.651 " />
<polygon points="727.749,419.352 730.108,414.72 723.788,412.667 722.372,415.446 " />
<polygon points="730.108,414.72 730.922,409.586 724.276,409.586 723.788,412.667 " />
<polygon points="730.922,409.586 730.108,404.452 723.788,406.506 724.276,409.586 " />
<polygon points="730.108,404.452 727.749,399.821 722.372,403.727 723.788,406.506 " />
<polygon points="727.749,399.821 724.073,396.145 720.167,401.521 722.372,403.727 " />
<polygon points="724.073,396.145 719.441,393.785 717.388,400.105 720.167,401.521 " />
<polygon points="719.441,393.785 714.307,392.972 714.307,399.618 717.388,400.105 " />
<polygon points="714.307,392.972 709.173,393.785 711.227,400.105 714.307,399.618 " />
<polygon points="709.173,393.785 704.541,396.145 708.448,401.521 711.227,400.105 " />
<polygon points="704.541,396.145 700.866,399.821 706.242,403.727 708.448,401.521 " />
<polygon points="700.866,399.821 698.506,404.452 704.826,406.506 706.242,403.727 " />
<polygon points="698.506,404.452 697.693,409.586 704.338,409.586 704.826,406.506 " />
</g>
<g clip-path="url(#clipId0)" fill="rgb(0,0,0)" stroke="rgb(0,0,0)" stroke-width="0.25" >
<polygon points="704.737,409.586 706.019,414.371 714.307,409.586 714.307,409.586 " />
<polygon points="706.019,414.371 709.522,417.874 714.307,409.586 714.307,409.586 " />
<polygon points="709.522,417.874 714.307,419.156 714.307,409.586 714.307,409.586 " />
<polygon points="714.307,419.156 719.092,417.874 714.307,409.586 714.307,409.586 " />
<polygon points="719.092,417.874 722.595,414.371 714.307,409.586 714.307,409.586 " />
<polygon points="722.595,414.371 723.877,409.586 714.307,409.586 714.307,409.586 " />
<polygon points="723.877,409.586 722.595,404.801 714.307,409.586 714.307,409.586 " />
<polygon points="722.595,404.801 719.092,401.298 714.307,409.586 714.307,409.586 " />
<polygon points="719.092,401.298 714.307,400.016 714.307,409.586 714.307,409.586 " />
<polygon points="714.307,400.016 709.522,401.298 714.307,409.586 714.307,409.586 " />
<polygon points="709.522,401.298 706.019,404.801 714.307,409.586 714.307,409.586 " />
<polygon points="706.019,404.801 704.737,409.586 714.307,409.586 714.307,409.586 " />
</g>
<g clip-path="url(#clipId0)" fill="rgb(255,255,0)" stroke="rgb(255,255,0)" stroke-width="0" >
<text transform="matrix(10.6333 0 -0 10.6333 734.222 397.88)" font-family="Arial,'sans-serif'" font-size="1.39636" >Estaci&#243;n</text>
</g>
<g clip-path="url(#clipId0)" fill="rgb(0,0,255)" stroke="rgb(0,0,255)" stroke-width="0.25" >
<polygon points="380.01,409.586 380.823,414.72 387.144,412.667 386.656,409.586 " />
<polygon points="380.823,414.72 383.183,419.352 388.56,415.446 387.144,412.667 " />
<polygon points="383.183,419.352 386.859,423.028 390.765,417.651 388.56,415.446 " />
<polygon points="386.859,423.028 391.49,425.388 393.544,419.067 390.765,417.651 " />
<polygon points="391.49,425.388 396.624,426.201 396.624,419.555 393.544,419.067 " />
<polygon points="396.624,426.201 401.759,425.388 399.705,419.067 396.624,419.555 " />
<polygon points="401.759,425.388 406.39,423.028 402.484,417.651 399.705,419.067 " />
<polygon points="406.39,423.028 410.066,419.352 404.689,415.446 402.484,417.651 " />
<polygon points="410.066,419.352 412.426,414.72 406.105,412.667 404.689,415.446 " />
<polygon points="412.426,414.72 413.239,409.586 406.593,409.586 406.105,412.667 " />
<polygon points="413.239,409.586 412.426,404.452 406.105,406.506 406.593,409.586 " />
<polygon points="412.426,404.452 410.066,399.821 404.689,403.727 406.105,406.506 " />
<polygon points="410.066,399.821 406.39,396.145 402.484,401.521 404.689,403.727 " />
<polygon points="406.39,396.145 401.759,393.785 399.705,400.105 402.484,401.521 " />
<polygon points="401.759,393.785 396.624,392.972 396.624,399.618 399.705,400.105 " />
<polygon points="396.624,392.972 391.49,393.785 393.544,400.105 396.624,399.618 " />
<polygon points="391.49,393.785 386.859,396.145 390.765,401.521 393.544,400.105 " />
<polygon points="386.859,396.145 383.183,399.821 388.56,403.727 390.765,401.521 " />
<polygon points="383.183,399.821 380.823,404.452 387.144,406.506 388.56,403.727 " />
<polygon points="380.823,404.452 380.01,409.586 386.656,409.586 387.144,406.506 " />
</g>
<g clip-path="url(#clipId0)" fill="rgb(0,0,0)" stroke="rgb(0,0,0)" stroke-width="0.25" >
<polygon points="387.055,409.586 388.337,414.371 396.624,409.586 396.624,409.586 " />
<polygon points="388.337,414.371 391.839,417.874 396.624,409.586 396.624,409.586 " />
<polygon points="391.839,417.874 396.624,419.156 396.624,409.586 396.624,409.586 " />
<polygon points="396.624,419.156 401.409,417.874 396.624,409.586 396.624,409.586 " />
<polygon points="401.409,417.874 404.912,414.371 396.624,409.586 396.624,409.586 " />
<polygon points="404.912,414.371 406.194,409.586 396.624,409.586 396.624,409.586 " />
<polygon points="406.194,409.586 404.912,404.801 396.624,409.586 396.624,409.586 " />
<polygon points="404.912,404.801 401.409,401.298 396.624,409.586 396.624,409.586 " />
<polygon points="401.409,401.298 396.624,400.016 396.624,409.586 396.624,409.586 " />
<polygon points="396.624,400.016 391.839,401.298 396.624,409.586 396.624,409.586 " />
<polygon points="391.839,401.298 388.337,404.801 396.624,409.586 396.624,409.586 " />
<polygon points="388.337,404.801 387.055,409.586 396.624,409.586 396.624,409.586 " />
</g>
<g clip-path="url(#clipId0)" fill="rgb(255,255,0)" stroke="rgb(255,255,0)" stroke-width="0" >
<text transform="matrix(10.6333 0 -0 10.6333 416.539 397.88)" font-family="Arial,'sans-serif'" font-size="1.39636" >Estaci&#243;n</text>
</g>
</svg>
