<?xml version="1.0" encoding="UTF-8" standalone="no"?>
<svg
   xmlns:dc="http://purl.org/dc/elements/1.1/"
   xmlns:cc="http://creativecommons.org/ns#"
   xmlns:rdf="http://www.w3.org/1999/02/22-rdf-syntax-ns#"
   xmlns:svg="http://www.w3.org/2000/svg"
   xmlns="http://www.w3.org/2000/svg"
   xmlns:sodipodi="http://sodipodi.sourceforge.net/DTD/sodipodi-0.dtd"
   xmlns:inkscape="http://www.inkscape.org/namespaces/inkscape"
   width="800.000"
   height="600.000"
   viewBox="0.0 0.0 800.000 600.000"
   version="1.1"
   id="svg556"
   sodipodi:docname="Prueba A.svg"
   inkscape:version="0.92.4 (5da689c313, 2019-01-14)">
  <metadata
     id="metadata562">
    <rdf:RDF>
      <cc:Work
         rdf:about="">
        <dc:format>image/svg+xml</dc:format>
        <dc:type
           rdf:resource="http://purl.org/dc/dcmitype/StillImage" />
      </cc:Work>
    </rdf:RDF>
  </metadata>
  <defs
     id="defs560" />
  <sodipodi:namedview
     pagecolor="#ffffff"
     bordercolor="#666666"
     borderopacity="1"
     objecttolerance="10"
     gridtolerance="10"
     guidetolerance="10"
     inkscape:pageopacity="0"
     inkscape:pageshadow="2"
     inkscape:window-width="1920"
     inkscape:window-height="1017"
     id="namedview558"
     showgrid="false"
     inkscape:zoom="17.800235"
     inkscape:cx="328.20419"
     inkscape:cy="280.04634"
     inkscape:window-x="-8"
     inkscape:window-y="-8"
     inkscape:window-maximized="1"
     inkscape:current-layer="svg556" />
  <title
     id="title2">Produce by Acme CAD Converter</title>
  <desc
     id="desc4">Produce by Acme CAD Converter</desc>
  <path
     d="M787.04 487.55L782.82 490.71 687.86 364.1 692.08 360.93 787.04 487.55Z"
     fill-rule="evenodd"
     fill="red"
     id="path6" />
  <path
     d="M692.08 360.93L688.18 356.03 684.15 359.43 687.86 364.1 692.08 360.93Z"
     fill-rule="nonzero"
     fill="red"
     id="path8" />
  <path
     d="M688.18 356.03L684 351.36 680.17 354.99 684.15 359.43 688.18 356.03Z"
     fill-rule="nonzero"
     fill="red"
     id="path10" />
  <path
     d="M684 351.36L679.55 346.94 675.94 350.79 680.17 354.99 684 351.36Z"
     fill-rule="nonzero"
     fill="red"
     id="path12" />
  <path
     d="M679.55 346.94L674.86 342.79 671.48 346.84 675.94 350.79 679.55 346.94Z"
     fill-rule="nonzero"
     fill="red"
     id="path14" />
  <path
     d="M674.86 342.79L669.93 338.92 666.79 343.16 671.48 346.84 674.86 342.79Z"
     fill-rule="nonzero"
     fill="red"
     id="path16" />
  <path
     d="M669.93 338.92L664.79 335.33 661.9 339.75 666.79 343.16 669.93 338.92Z"
     fill-rule="nonzero"
     fill="red"
     id="path18" />
  <path
     d="M664.79 335.33L659.45 332.05 656.82 336.63 661.9 339.75 664.79 335.33Z"
     fill-rule="nonzero"
     fill="red"
     id="path20" />
  <path
     d="M659.45 332.05L653.93 329.09 651.57 333.81 656.82 336.63 659.45 332.05Z"
     fill-rule="nonzero"
     fill="red"
     id="path22" />
  <path
     d="M653.93 329.09L648.24 326.45 646.16 331.3 651.57 333.81 653.93 329.09Z"
     fill-rule="nonzero"
     fill="red"
     id="path24" />
  <path
     d="M648.24 326.45L642.42 324.15 640.62 329.11 646.16 331.3 648.24 326.45Z"
     fill-rule="nonzero"
     fill="red"
     id="path26" />
  <path
     d="M642.42 324.15L636.47 322.18 634.96 327.24 640.62 329.11 642.42 324.15Z"
     fill-rule="nonzero"
     fill="red"
     id="path28" />
  <path
     d="M636.47 322.18L630.41 320.57 629.2 325.7 634.96 327.24 636.47 322.18Z"
     fill-rule="nonzero"
     fill="red"
     id="path30" />
  <path
     d="M630.41 320.57L624.27 319.3 623.36 324.5 629.2 325.7 630.41 320.57Z"
     fill-rule="nonzero"
     fill="red"
     id="path32" />
  <path
     d="M624.27 319.3L618.07 318.4 617.46 323.64 623.36 324.5 624.27 319.3Z"
     fill-rule="nonzero"
     fill="red"
     id="path34" />
  <path
     d="M618.07 318.4L611.83 317.85 611.52 323.12 617.46 323.64 618.07 318.4Z"
     fill-rule="nonzero"
     fill="red"
     id="path36" />
  <path
     d="M611.83 317.85L605.56 317.67 605.56 322.95 611.52 323.12 611.83 317.85Z"
     fill-rule="nonzero"
     fill="red"
     id="path38" />
  <path
     d="M605.56 317.67L605.56 322.95 515.58 322.95 515.58 317.67 605.56 317.67Z"
     fill-rule="evenodd"
     fill="red"
     id="path40" />
  <path
     d="M515.58 317.67L511.45 317.86 511.94 323.12 515.58 322.95 515.58 317.67Z"
     fill-rule="nonzero"
     fill="red"
     id="path42" />
  <path
     d="M511.45 317.86L507.36 318.43 508.33 323.62 511.94 323.12 511.45 317.86Z"
     fill-rule="nonzero"
     fill="red"
     id="path44" />
  <path
     d="M507.36 318.43L503.33 319.38 504.77 324.45 508.33 323.62 507.36 318.43Z"
     fill-rule="nonzero"
     fill="red"
     id="path46" />
  <path
     d="M503.33 319.38L499.41 320.69 501.31 325.61 504.77 324.45 503.33 319.38Z"
     fill-rule="nonzero"
     fill="red"
     id="path48" />
  <path
     d="M499.41 320.69L495.62 322.36 497.97 327.08 501.31 325.61 499.41 320.69Z"
     fill-rule="nonzero"
     fill="red"
     id="path50" />
  <path
     d="M495.62 322.36L492.01 324.37 494.78 328.86 497.97 327.08 495.62 322.36Z"
     fill-rule="nonzero"
     fill="red"
     id="path52" />
  <path
     d="M492.01 324.37L488.6 326.7 491.77 330.92 494.78 328.86 492.01 324.37Z"
     fill-rule="nonzero"
     fill="red"
     id="path54" />
  <path
     d="M488.6 326.7L485.41 329.34 488.96 333.25 491.77 330.92 488.6 326.7Z"
     fill-rule="nonzero"
     fill="red"
     id="path56" />
  <path
     d="M485.41 329.34L482.48 332.26 486.38 335.82 488.96 333.25 485.41 329.34Z"
     fill-rule="nonzero"
     fill="red"
     id="path58" />
  <path
     d="M482.48 332.26L479.84 335.44 484.04 338.63 486.38 335.82 482.48 332.26Z"
     fill-rule="nonzero"
     fill="red"
     id="path60" />
  <path
     d="M479.84 335.44L477.49 338.85 481.98 341.64 484.04 338.63 479.84 335.44Z"
     fill-rule="nonzero"
     fill="red"
     id="path62" />
  <path
     d="M477.49 338.85L475.48 342.46 480.2 344.82 481.98 341.64 477.49 338.85Z"
     fill-rule="nonzero"
     fill="red"
     id="path64" />
  <path
     d="M475.48 342.46L480.2 344.82 476.85 351.5 472.13 349.14 475.48 342.46Z"
     fill-rule="evenodd"
     fill="red"
     id="path66" />
  <path
     d="M476.85 351.5L474.74 355.27 470.27 352.46 472.13 349.14 476.85 351.5Z"
     fill-rule="nonzero"
     fill="red"
     id="path68" />
  <path
     d="M474.74 355.27L472.27 358.81 468.09 355.59 470.27 352.46 474.74 355.27Z"
     fill-rule="nonzero"
     fill="red"
     id="path70" />
  <path
     d="M472.27 358.81L469.48 362.1 465.63 358.49 468.09 355.59 472.27 358.81Z"
     fill-rule="nonzero"
     fill="red"
     id="path72" />
  <path
     d="M469.48 362.1L466.38 365.1 462.9 361.14 465.63 358.49 469.48 362.1Z"
     fill-rule="nonzero"
     fill="red"
     id="path74" />
  <path
     d="M466.38 365.1L463.01 367.79 459.92 363.52 462.9 361.14 466.38 365.1Z"
     fill-rule="nonzero"
     fill="red"
     id="path76" />
  <path
     d="M463.01 367.79L459.4 370.15 456.73 365.6 459.92 363.52 463.01 367.79Z"
     fill-rule="nonzero"
     fill="red"
     id="path78" />
  <path
     d="M459.4 370.15L455.57 372.15 453.36 367.36 456.73 365.6 459.4 370.15Z"
     fill-rule="nonzero"
     fill="red"
     id="path80" />
  <path
     d="M455.57 372.15L451.57 373.77 449.83 368.79 453.36 367.36 455.57 372.15Z"
     fill-rule="nonzero"
     fill="red"
     id="path82" />
  <path
     d="M451.57 373.77L447.43 375 446.18 369.88 449.83 368.79 451.57 373.77Z"
     fill-rule="nonzero"
     fill="red"
     id="path84" />
  <path
     d="M447.43 375L443.2 375.83 442.44 370.6 446.18 369.88 447.43 375Z"
     fill-rule="nonzero"
     fill="red"
     id="path86" />
  <path
     d="M443.2 375.83L438.9 376.24 438.65 370.97 442.44 370.6 443.2 375.83Z"
     fill-rule="nonzero"
     fill="red"
     id="path88" />
  <path
     d="M438.9 376.24L434.59 376.24 434.84 370.97 438.65 370.97 438.9 376.24Z"
     fill-rule="nonzero"
     fill="red"
     id="path90" />
  <path
     d="M434.59 376.24L430.29 375.83 431.05 370.6 434.84 370.97 434.59 376.24Z"
     fill-rule="nonzero"
     fill="red"
     id="path92" />
  <path
     d="M430.29 375.83L426.06 375 427.31 369.88 431.05 370.6 430.29 375.83Z"
     fill-rule="nonzero"
     fill="red"
     id="path94" />
  <path
     d="M426.06 375L421.92 373.77 423.66 368.79 427.31 369.88 426.06 375Z"
     fill-rule="nonzero"
     fill="red"
     id="path96" />
  <path
     d="M421.92 373.77L417.92 372.15 420.13 367.36 423.66 368.79 421.92 373.77Z"
     fill-rule="nonzero"
     fill="red"
     id="path98" />
  <path
     d="M417.92 372.15L414.1 370.15 416.76 365.6 420.13 367.36 417.92 372.15Z"
     fill-rule="nonzero"
     fill="red"
     id="path100" />
  <path
     d="M414.1 370.15L410.48 367.79 413.57 363.52 416.76 365.6 414.1 370.15Z"
     fill-rule="nonzero"
     fill="red"
     id="path102" />
  <path
     d="M410.48 367.79L407.11 365.1 410.59 361.14 413.57 363.52 410.48 367.79Z"
     fill-rule="nonzero"
     fill="red"
     id="path104" />
  <path
     d="M407.11 365.1L404.01 362.1 407.86 358.49 410.59 361.14 407.11 365.1Z"
     fill-rule="nonzero"
     fill="red"
     id="path106" />
  <path
     d="M404.01 362.1L401.22 358.81 405.4 355.59 407.86 358.49 404.01 362.1Z"
     fill-rule="nonzero"
     fill="red"
     id="path108" />
  <path
     d="M401.22 358.81L398.75 355.27 403.22 352.46 405.4 355.59 401.22 358.81Z"
     fill-rule="nonzero"
     fill="red"
     id="path110" />
  <path
     d="M398.75 355.27L396.64 351.5 401.36 349.14 403.22 352.46 398.75 355.27Z"
     fill-rule="nonzero"
     fill="red"
     id="path112" />
  <path
     d="M401.36 349.14L396.64 351.5 393.3 344.82 398.01 342.46 401.36 349.14Z"
     fill-rule="evenodd"
     fill="red"
     id="path114" />
  <path
     d="M398.01 342.46L396 338.85 391.51 341.64 393.3 344.82 398.01 342.46Z"
     fill-rule="nonzero"
     fill="red"
     id="path116" />
  <path
     d="M396 338.85L393.65 335.44 389.45 338.63 391.51 341.64 396 338.85Z"
     fill-rule="nonzero"
     fill="red"
     id="path118" />
  <path
     d="M393.65 335.44L391.01 332.26 387.11 335.82 389.45 338.63 393.65 335.44Z"
     fill-rule="nonzero"
     fill="red"
     id="path120" />
  <path
     d="M391.01 332.26L388.08 329.34 384.53 333.25 387.11 335.82 391.01 332.26Z"
     fill-rule="nonzero"
     fill="red"
     id="path122" />
  <path
     d="M388.08 329.34L384.89 326.7 381.72 330.92 384.53 333.25 388.08 329.34Z"
     fill-rule="nonzero"
     fill="red"
     id="path124" />
  <path
     d="M384.89 326.7L381.48 324.37 378.71 328.86 381.72 330.92 384.89 326.7Z"
     fill-rule="nonzero"
     fill="red"
     id="path126" />
  <path
     d="M381.48 324.37L377.87 322.36 375.52 327.08 378.71 328.86 381.48 324.37Z"
     fill-rule="nonzero"
     fill="red"
     id="path128" />
  <path
     d="M377.87 322.36L374.08 320.69 372.18 325.61 375.52 327.08 377.87 322.36Z"
     fill-rule="nonzero"
     fill="red"
     id="path130" />
  <path
     d="M374.08 320.69L370.16 319.38 368.72 324.45 372.18 325.61 374.08 320.69Z"
     fill-rule="nonzero"
     fill="red"
     id="path132" />
  <path
     d="M370.16 319.38L366.13 318.43 365.17 323.62 368.72 324.45 370.16 319.38Z"
     fill-rule="nonzero"
     fill="red"
     id="path134" />
  <path
     d="M366.13 318.43L362.04 317.86 361.55 323.12 365.17 323.62 366.13 318.43Z"
     fill-rule="nonzero"
     fill="red"
     id="path136" />
  <path
     d="M362.04 317.86L357.91 317.67 357.91 322.95 361.55 323.12 362.04 317.86Z"
     fill-rule="nonzero"
     fill="red"
     id="path138" />
  <path
     d="M357.91 317.67L357.91 322.95 258.88 322.95 258.88 317.67 357.91 317.67Z"
     fill-rule="evenodd"
     fill="red"
     id="path140" />
  <path
     d="M258.88 317.67L252.35 317.87 252.66 323.14 258.88 322.95 258.88 317.67Z"
     fill-rule="nonzero"
     fill="red"
     id="path142" />
  <path
     d="M252.35 317.87L245.84 318.46 246.48 323.7 252.66 323.14 252.35 317.87Z"
     fill-rule="nonzero"
     fill="red"
     id="path144" />
  <path
     d="M245.84 318.46L239.38 319.44 240.33 324.63 246.48 323.7 245.84 318.46Z"
     fill-rule="nonzero"
     fill="red"
     id="path146" />
  <path
     d="M239.38 319.44L232.99 320.82 234.26 325.94 240.33 324.63 239.38 319.44Z"
     fill-rule="nonzero"
     fill="red"
     id="path148" />
  <path
     d="M232.99 320.82L226.7 322.57 228.27 327.61 234.26 325.94 232.99 320.82Z"
     fill-rule="nonzero"
     fill="red"
     id="path150" />
  <path
     d="M226.7 322.57L220.53 324.7 222.4 329.63 228.27 327.61 226.7 322.57Z"
     fill-rule="nonzero"
     fill="red"
     id="path152" />
  <path
     d="M220.53 324.7L214.49 327.2 216.66 332.01 222.4 329.63 220.53 324.7Z"
     fill-rule="nonzero"
     fill="red"
     id="path154" />
  <path
     d="M214.49 327.2L208.62 330.06 211.07 334.73 216.66 332.01 214.49 327.2Z"
     fill-rule="nonzero"
     fill="red"
     id="path156" />
  <path
     d="M208.62 330.06L202.93 333.27 205.66 337.78 211.07 334.73 208.62 330.06Z"
     fill-rule="nonzero"
     fill="red"
     id="path158" />
  <path
     d="M202.93 333.27L197.44 336.82 200.44 341.16 205.66 337.78 202.93 333.27Z"
     fill-rule="nonzero"
     fill="red"
     id="path160" />
  <path
     d="M197.44 336.82L192.18 340.69 195.43 344.84 200.44 341.16 197.44 336.82Z"
     fill-rule="nonzero"
     fill="red"
     id="path162" />
  <path
     d="M192.18 340.69L187.16 344.87 190.66 348.82 195.43 344.84 192.18 340.69Z"
     fill-rule="nonzero"
     fill="red"
     id="path164" />
  <path
     d="M187.16 344.87L182.4 349.35 186.13 353.08 190.66 348.82 187.16 344.87Z"
     fill-rule="nonzero"
     fill="red"
     id="path166" />
  <path
     d="M182.4 349.35L186.13 353.08 123.89 415.33 120.16 411.6 182.4 349.35Z"
     fill-rule="evenodd"
     fill="red"
     id="path168" />
  <path
     d="M123.89 415.33L121 417.97 117.61 413.93 120.16 411.6 123.89 415.33Z"
     fill-rule="nonzero"
     fill="red"
     id="path170" />
  <path
     d="M121 417.97L117.9 420.35 114.87 416.03 117.61 413.93 121 417.97Z"
     fill-rule="nonzero"
     fill="red"
     id="path172" />
  <path
     d="M117.9 420.35L114.6 422.45 111.96 417.88 114.87 416.03 117.9 420.35Z"
     fill-rule="nonzero"
     fill="red"
     id="path174" />
  <path
     d="M114.6 422.45L111.13 424.26 108.9 419.48 111.96 417.88 114.6 422.45Z"
     fill-rule="nonzero"
     fill="red"
     id="path176" />
  <path
     d="M111.13 424.26L107.52 425.76 105.71 420.8 108.9 419.48 111.13 424.26Z"
     fill-rule="nonzero"
     fill="red"
     id="path178" />
  <path
     d="M107.52 425.76L103.78 426.93 102.42 421.84 105.71 420.8 107.52 425.76Z"
     fill-rule="nonzero"
     fill="red"
     id="path180" />
  <path
     d="M103.78 426.93L99.97 427.78 99.05 422.58 102.42 421.84 103.78 426.93Z"
     fill-rule="nonzero"
     fill="red"
     id="path182" />
  <path
     d="M99.97 427.78L96.09 428.29 95.63 423.03 99.05 422.58 99.97 427.78Z"
     fill-rule="nonzero"
     fill="red"
     id="path184" />
  <path
     d="M96.09 428.29L92.18 428.46 92.18 423.18 95.63 423.03 96.09 428.29Z"
     fill-rule="nonzero"
     fill="red"
     id="path186" />
  <path
     d="M92.18 423.18L92.18 428.46 46.35 428.46 46.35 423.18 92.18 423.18Z"
     fill-rule="evenodd"
     fill="red"
     id="path188" />
  <path
     d="M46.35 428.46L42.22 428.27 42.7 423.02 46.35 423.18 46.35 428.46Z"
     fill-rule="nonzero"
     fill="red"
     id="path190" />
  <path
     d="M42.22 428.27L38.11 427.7 39.08 422.51 42.7 423.02 42.22 428.27Z"
     fill-rule="nonzero"
     fill="red"
     id="path192" />
  <path
     d="M38.11 427.7L34.08 426.75 35.53 421.67 39.08 422.51 38.11 427.7Z"
     fill-rule="nonzero"
     fill="red"
     id="path194" />
  <path
     d="M34.08 426.75L30.15 425.43 32.06 420.51 35.53 421.67 34.08 426.75Z"
     fill-rule="nonzero"
     fill="red"
     id="path196" />
  <path
     d="M30.15 425.43L26.37 423.76 28.72 419.04 32.06 420.51 30.15 425.43Z"
     fill-rule="nonzero"
     fill="red"
     id="path198" />
  <path
     d="M26.37 423.76L22.75 421.74 25.52 417.26 28.72 419.04 26.37 423.76Z"
     fill-rule="nonzero"
     fill="red"
     id="path200" />
  <path
     d="M22.75 421.74L19.33 419.4 22.51 415.19 25.52 417.26 22.75 421.74Z"
     fill-rule="nonzero"
     fill="red"
     id="path202" />
  <path
     d="M19.33 419.4L16.14 416.76 19.7 412.86 22.51 415.19 19.33 419.4Z"
     fill-rule="nonzero"
     fill="red"
     id="path204" />
  <path
     d="M16.14 416.76L13.21 413.83 17.11 410.27 19.7 412.86 16.14 416.76Z"
     fill-rule="nonzero"
     fill="red"
     id="path206" />
  <path
     d="M13.21 413.83L10.57 410.64 14.78 407.46 17.11 410.27 13.21 413.83Z"
     fill-rule="nonzero"
     fill="red"
     id="path208" />
  <path
     d="M10.57 410.64L8.23 407.22 12.71 404.45 14.78 407.46 10.57 410.64Z"
     fill-rule="nonzero"
     fill="red"
     id="path210" />
  <path
     d="M8.23 407.22L6.21 403.61 10.94 401.25 12.71 404.45 8.23 407.22Z"
     fill-rule="nonzero"
     fill="red"
     id="path212" />
  <path
     d="M6.21 403.61L4.54 399.82 9.46 397.91 10.94 401.25 6.21 403.61Z"
     fill-rule="nonzero"
     fill="red"
     id="path214" />
  <path
     d="M4.54 399.82L3.22 395.89 8.3 394.45 9.46 397.91 4.54 399.82Z"
     fill-rule="nonzero"
     fill="red"
     id="path216" />
  <path
     d="M3.22 395.89L2.27 391.86 7.46 390.89 8.3 394.45 3.22 395.89Z"
     fill-rule="nonzero"
     fill="red"
     id="path218" />
  <path
     d="M2.27 391.86L1.7 387.76 6.96 387.27 7.46 390.89 2.27 391.86Z"
     fill-rule="nonzero"
     fill="red"
     id="path220" />
  <path
     d="M1.7 387.76L1.51 383.62 6.79 383.62 6.96 387.27 1.7 387.76Z"
     fill-rule="nonzero"
     fill="red"
     id="path222" />
  <path
     d="M6.79 383.62L1.51 383.62 1.51 109.29 6.79 109.29 6.79 383.62Z"
     fill-rule="evenodd"
     fill="red"
     id="path224" />
  <path
     d="M724.26 425.82L724.49 428.25 729.67 427.28 729.54 425.82 724.26 425.82Z"
     fill-rule="nonzero"
     fill="blue"
     id="path226" />
  <path
     d="M724.49 428.25L725.15 430.59 730.07 428.68 729.67 427.28 724.49 428.25Z"
     fill-rule="nonzero"
     fill="blue"
     id="path228" />
  <path
     d="M725.15 430.59L726.24 432.77 730.72 429.99 730.07 428.68 725.15 430.59Z"
     fill-rule="nonzero"
     fill="blue"
     id="path230" />
  <path
     d="M726.24 432.77L727.71 434.71 731.6 431.15 730.72 429.99 726.24 432.77Z"
     fill-rule="nonzero"
     fill="blue"
     id="path232" />
  <path
     d="M727.71 434.71L729.5 436.35 732.68 432.14 731.6 431.15 727.71 434.71Z"
     fill-rule="nonzero"
     fill="blue"
     id="path234" />
  <path
     d="M729.5 436.35L731.57 437.63 733.93 432.91 732.68 432.14 729.5 436.35Z"
     fill-rule="nonzero"
     fill="blue"
     id="path236" />
  <path
     d="M731.57 437.63L733.84 438.51 735.29 433.43 733.93 432.91 731.57 437.63Z"
     fill-rule="nonzero"
     fill="blue"
     id="path238" />
  <path
     d="M733.84 438.51L736.24 438.95 736.72 433.7 735.29 433.43 733.84 438.51Z"
     fill-rule="nonzero"
     fill="blue"
     id="path240" />
  <path
     d="M736.24 438.95L738.67 438.95 738.18 433.7 736.72 433.7 736.24 438.95Z"
     fill-rule="nonzero"
     fill="blue"
     id="path242" />
  <path
     d="M738.67 438.95L741.06 438.51 739.62 433.43 738.18 433.7 738.67 438.95Z"
     fill-rule="nonzero"
     fill="blue"
     id="path244" />
  <path
     d="M741.06 438.51L743.33 437.63 740.98 432.91 739.62 433.43 741.06 438.51Z"
     fill-rule="nonzero"
     fill="blue"
     id="path246" />
  <path
     d="M743.33 437.63L745.4 436.35 742.22 432.14 740.98 432.91 743.33 437.63Z"
     fill-rule="nonzero"
     fill="blue"
     id="path248" />
  <path
     d="M745.4 436.35L747.2 434.71 743.3 431.15 742.22 432.14 745.4 436.35Z"
     fill-rule="nonzero"
     fill="blue"
     id="path250" />
  <path
     d="M747.2 434.71L748.67 432.77 744.18 429.99 743.3 431.15 747.2 434.71Z"
     fill-rule="nonzero"
     fill="blue"
     id="path252" />
  <path
     d="M748.67 432.77L749.75 430.59 744.83 428.68 744.18 429.99 748.67 432.77Z"
     fill-rule="nonzero"
     fill="blue"
     id="path254" />
  <path
     d="M749.75 430.59L750.42 428.25 745.23 427.28 744.83 428.68 749.75 430.59Z"
     fill-rule="nonzero"
     fill="blue"
     id="path256" />
  <path
     d="M750.42 428.25L750.64 425.82 745.37 425.82 745.23 427.28 750.42 428.25Z"
     fill-rule="nonzero"
     fill="blue"
     id="path258" />
  <path
     d="M750.64 425.82L750.42 423.4 745.23 424.37 745.37 425.82 750.64 425.82Z"
     fill-rule="nonzero"
     fill="blue"
     id="path260" />
  <path
     d="M750.42 423.4L749.75 421.06 744.83 422.96 745.23 424.37 750.42 423.4Z"
     fill-rule="nonzero"
     fill="blue"
     id="path262" />
  <path
     d="M749.75 421.06L748.67 418.88 744.18 421.66 744.83 422.96 749.75 421.06Z"
     fill-rule="nonzero"
     fill="blue"
     id="path264" />
  <path
     d="M748.67 418.88L747.2 416.94 743.3 420.49 744.18 421.66 748.67 418.88Z"
     fill-rule="nonzero"
     fill="blue"
     id="path266" />
  <path
     d="M747.2 416.94L745.4 415.3 742.22 419.51 743.3 420.49 747.2 416.94Z"
     fill-rule="nonzero"
     fill="blue"
     id="path268" />
  <path
     d="M745.4 415.3L743.33 414.02 740.98 418.74 742.22 419.51 745.4 415.3Z"
     fill-rule="nonzero"
     fill="blue"
     id="path270" />
  <path
     d="M743.33 414.02L741.06 413.14 739.62 418.21 740.98 418.74 743.33 414.02Z"
     fill-rule="nonzero"
     fill="blue"
     id="path272" />
  <path
     d="M741.06 413.14L738.67 412.69 738.18 417.94 739.62 418.21 741.06 413.14Z"
     fill-rule="nonzero"
     fill="blue"
     id="path274" />
  <path
     d="M738.67 412.69L736.24 412.69 736.72 417.94 738.18 417.94 738.67 412.69Z"
     fill-rule="nonzero"
     fill="blue"
     id="path276" />
  <path
     d="M736.24 412.69L733.84 413.14 735.29 418.21 736.72 417.94 736.24 412.69Z"
     fill-rule="nonzero"
     fill="blue"
     id="path278" />
  <path
     d="M733.84 413.14L731.57 414.02 733.93 418.74 735.29 418.21 733.84 413.14Z"
     fill-rule="nonzero"
     fill="blue"
     id="path280" />
  <path
     d="M731.57 414.02L729.5 415.3 732.68 419.51 733.93 418.74 731.57 414.02Z"
     fill-rule="nonzero"
     fill="blue"
     id="path282" />
  <path
     d="M729.5 415.3L727.71 416.94 731.6 420.49 732.68 419.51 729.5 415.3Z"
     fill-rule="nonzero"
     fill="blue"
     id="path284" />
  <path
     d="M727.71 416.94L726.24 418.88 730.72 421.66 731.6 420.49 727.71 416.94Z"
     fill-rule="nonzero"
     fill="blue"
     id="path286" />
  <path
     d="M726.24 418.88L725.15 421.06 730.07 422.96 730.72 421.66 726.24 418.88Z"
     fill-rule="nonzero"
     fill="blue"
     id="path288" />
  <path
     d="M725.15 421.06L724.49 423.4 729.67 424.37 730.07 422.96 725.15 421.06Z"
     fill-rule="nonzero"
     fill="blue"
     id="path290" />
  <path
     d="M724.49 423.4L724.26 425.82 729.54 425.82 729.67 424.37 724.49 423.4Z"
     fill-rule="nonzero"
     fill="blue"
     id="path292" />
  <path
     d="M729.86 425.82L730.23 428.17 737.45 425.82 737.45 425.82 729.86 425.82Z"
     fill-rule="nonzero"
     fill="black"
     id="path294" />
  <path
     d="M730.23 428.17L731.31 430.29 737.45 425.82 737.45 425.82 730.23 428.17Z"
     fill-rule="nonzero"
     fill="black"
     id="path296" />
  <path
     d="M731.31 430.29L732.99 431.97 737.45 425.82 737.45 425.82 731.31 430.29Z"
     fill-rule="nonzero"
     fill="black"
     id="path298" />
  <path
     d="M732.99 431.97L735.1 433.05 737.45 425.82 737.45 425.82 732.99 431.97Z"
     fill-rule="nonzero"
     fill="black"
     id="path300" />
  <path
     d="M735.1 433.05L737.45 433.42 737.45 425.82 737.45 425.82 735.1 433.05Z"
     fill-rule="nonzero"
     fill="black"
     id="path302" />
  <path
     d="M737.45 433.42L739.8 433.05 737.45 425.82 737.45 425.82 737.45 433.42Z"
     fill-rule="nonzero"
     fill="black"
     id="path304" />
  <path
     d="M739.8 433.05L741.92 431.97 737.45 425.82 737.45 425.82 739.8 433.05Z"
     fill-rule="nonzero"
     fill="black"
     id="path306" />
  <path
     d="M741.92 431.97L743.6 430.29 737.45 425.82 737.45 425.82 741.92 431.97Z"
     fill-rule="nonzero"
     fill="black"
     id="path308" />
  <path
     d="M743.6 430.29L744.68 428.17 737.45 425.82 737.45 425.82 743.6 430.29Z"
     fill-rule="nonzero"
     fill="black"
     id="path310" />
  <path
     d="M744.68 428.17L745.05 425.82 737.45 425.82 737.45 425.82 744.68 428.17Z"
     fill-rule="nonzero"
     fill="black"
     id="path312" />
  <path
     d="M745.05 425.82L744.68 423.47 737.45 425.82 737.45 425.82 745.05 425.82Z"
     fill-rule="nonzero"
     fill="black"
     id="path314" />
  <path
     d="M744.68 423.47L743.6 421.36 737.45 425.82 737.45 425.82 744.68 423.47Z"
     fill-rule="nonzero"
     fill="black"
     id="path316" />
  <path
     d="M743.6 421.36L741.92 419.68 737.45 425.82 737.45 425.82 743.6 421.36Z"
     fill-rule="nonzero"
     fill="black"
     id="path318" />
  <path
     d="M741.92 419.68L739.8 418.6 737.45 425.82 737.45 425.82 741.92 419.68Z"
     fill-rule="nonzero"
     fill="black"
     id="path320" />
  <path
     d="M739.8 418.6L737.45 418.23 737.45 425.82 737.45 425.82 739.8 418.6Z"
     fill-rule="nonzero"
     fill="black"
     id="path322" />
  <path
     d="M737.45 418.23L735.1 418.6 737.45 425.82 737.45 425.82 737.45 418.23Z"
     fill-rule="nonzero"
     fill="black"
     id="path324" />
  <path
     d="M735.1 418.6L732.99 419.68 737.45 425.82 737.45 425.82 735.1 418.6Z"
     fill-rule="nonzero"
     fill="black"
     id="path326" />
  <path
     d="M732.99 419.68L731.31 421.36 737.45 425.82 737.45 425.82 732.99 419.68Z"
     fill-rule="nonzero"
     fill="black"
     id="path328" />
  <path
     d="M731.31 421.36L730.23 423.47 737.45 425.82 737.45 425.82 731.31 421.36Z"
     fill-rule="nonzero"
     fill="black"
     id="path330" />
  <path
     d="M730.23 423.47L729.86 425.82 737.45 425.82 737.45 425.82 730.23 423.47Z"
     fill-rule="nonzero"
     fill="black"
     id="path332" />
  <path
     d="M753.26 416.53L753.26 408.09M753.26 408.09L758.49 408.09M753.26 412.11L756.48 412.11M753.26 416.53L758.49 416.53M765.32 412.11L764.92 411.3M764.92 411.3L763.71 410.9M763.71 410.9L762.51 410.9M762.51 410.9L761.3 411.3M761.3 411.3L760.9 412.11M760.9 412.11L761.3 412.91M761.3 412.91L762.1 413.31M762.1 413.31L764.11 413.72M764.11 413.72L764.92 414.12M764.92 414.12L765.32 414.92M765.32 414.92L765.32 415.32M765.32 415.32L764.92 416.13M764.92 416.13L763.71 416.53M763.71 416.53L762.51 416.53M762.51 416.53L761.3 416.13M761.3 416.13L760.9 415.32M768.94 408.09L768.94 414.92M768.94 414.92L769.34 416.13M769.34 416.13L770.14 416.53M770.14 416.53L770.95 416.53M767.73 410.9L770.54 410.9M778.18 410.9L778.18 416.53M778.18 412.11L777.38 411.3M777.38 411.3L776.57 410.9M776.57 410.9L775.37 410.9M775.37 410.9L774.56 411.3M774.56 411.3L773.76 412.11M773.76 412.11L773.36 413.31M773.36 413.31L773.36 414.12M773.36 414.12L773.76 415.32M773.76 415.32L774.56 416.13M774.56 416.13L775.37 416.53M775.37 416.53L776.57 416.53M776.57 416.53L777.38 416.13M777.38 416.13L778.18 415.32M785.82 412.11L785.02 411.3M785.02 411.3L784.21 410.9M784.21 410.9L783.01 410.9M783.01 410.9L782.2 411.3M782.2 411.3L781.4 412.11M781.4 412.11L781 413.31M781 413.31L781 414.12M781 414.12L781.4 415.32M781.4 415.32L782.2 416.13M782.2 416.13L783.01 416.53M783.01 416.53L784.21 416.53M784.21 416.53L785.02 416.13M785.02 416.13L785.82 415.32M788.23 408.49L788.63 408.89M788.63 408.89L789.03 408.49M789.03 408.49L788.63 408.09M788.63 408.09L788.23 408.49M788.63 410.9L788.63 416.53M792.25 409.7L795.87 408.09M793.46 410.9L792.65 411.3M792.65 411.3L791.85 412.11M791.85 412.11L791.45 413.31M791.45 413.31L791.45 414.12M791.45 414.12L791.85 415.32M791.85 415.32L792.65 416.13M792.65 416.13L793.46 416.53M793.46 416.53L794.66 416.53M794.66 416.53L795.47 416.13M795.47 416.13L796.27 415.32M796.27 415.32L796.67 414.12M796.67 414.12L796.67 413.31M796.67 413.31L796.27 412.11M796.27 412.11L795.47 411.3M795.47 411.3L794.66 410.9M794.66 410.9L793.46 410.9M799.08 416.53L799.08 410.9M799.08 412.51L800 411.59"
     fill="none"
     stroke="yellow"
     stroke-width="0.5"
     id="path334"
     style="fill:#000000;fill-opacity:1" />
  <path
     d="M547.39 320.31L547.61 322.73 552.8 321.76 552.66 320.31 547.39 320.31Z"
     fill-rule="nonzero"
     fill="blue"
     id="path336" />
  <path
     d="M547.61 322.73L548.28 325.08 553.2 323.17 552.8 321.76 547.61 322.73Z"
     fill-rule="nonzero"
     fill="blue"
     id="path338" />
  <path
     d="M548.28 325.08L549.36 327.25 553.85 324.48 553.2 323.17 548.28 325.08Z"
     fill-rule="nonzero"
     fill="blue"
     id="path340" />
  <path
     d="M549.36 327.25L550.83 329.2 554.73 325.64 553.85 324.48 549.36 327.25Z"
     fill-rule="nonzero"
     fill="blue"
     id="path342" />
  <path
     d="M550.83 329.2L552.63 330.84 555.81 326.63 554.73 325.64 550.83 329.2Z"
     fill-rule="nonzero"
     fill="blue"
     id="path344" />
  <path
     d="M552.63 330.84L554.7 332.12 557.05 327.39 555.81 326.63 552.63 330.84Z"
     fill-rule="nonzero"
     fill="blue"
     id="path346" />
  <path
     d="M554.7 332.12L556.96 333 558.41 327.92 557.05 327.39 554.7 332.12Z"
     fill-rule="nonzero"
     fill="blue"
     id="path348" />
  <path
     d="M556.96 333L559.36 333.44 559.84 328.19 558.41 327.92 556.96 333Z"
     fill-rule="nonzero"
     fill="blue"
     id="path350" />
  <path
     d="M559.36 333.44L561.79 333.44 561.3 328.19 559.84 328.19 559.36 333.44Z"
     fill-rule="nonzero"
     fill="blue"
     id="path352" />
  <path
     d="M561.79 333.44L564.18 333 562.74 327.92 561.3 328.19 561.79 333.44Z"
     fill-rule="nonzero"
     fill="blue"
     id="path354" />
  <path
     d="M564.18 333L566.45 332.12 564.1 327.39 562.74 327.92 564.18 333Z"
     fill-rule="nonzero"
     fill="blue"
     id="path356" />
  <path
     d="M566.45 332.12L568.52 330.84 565.34 326.63 564.1 327.39 566.45 332.12Z"
     fill-rule="nonzero"
     fill="blue"
     id="path358" />
  <path
     d="M568.52 330.84L570.32 329.2 566.42 325.64 565.34 326.63 568.52 330.84Z"
     fill-rule="nonzero"
     fill="blue"
     id="path360" />
  <path
     d="M570.32 329.2L571.79 327.25 567.3 324.48 566.42 325.64 570.32 329.2Z"
     fill-rule="nonzero"
     fill="blue"
     id="path362" />
  <path
     d="M571.79 327.25L572.87 325.08 567.95 323.17 567.3 324.48 571.79 327.25Z"
     fill-rule="nonzero"
     fill="blue"
     id="path364" />
  <path
     d="M572.87 325.08L573.54 322.73 568.35 321.76 567.95 323.17 572.87 325.08Z"
     fill-rule="nonzero"
     fill="blue"
     id="path366" />
  <path
     d="M573.54 322.73L573.76 320.31 568.49 320.31 568.35 321.76 573.54 322.73Z"
     fill-rule="nonzero"
     fill="blue"
     id="path368" />
  <path
     d="M573.76 320.31L573.54 317.89 568.35 318.86 568.49 320.31 573.76 320.31Z"
     fill-rule="nonzero"
     fill="blue"
     id="path370" />
  <path
     d="M573.54 317.89L572.87 315.55 567.95 317.45 568.35 318.86 573.54 317.89Z"
     fill-rule="nonzero"
     fill="blue"
     id="path372" />
  <path
     d="M572.87 315.55L571.79 313.37 567.3 316.15 567.95 317.45 572.87 315.55Z"
     fill-rule="nonzero"
     fill="blue"
     id="path374" />
  <path
     d="M571.79 313.37L570.32 311.43 566.42 314.98 567.3 316.15 571.79 313.37Z"
     fill-rule="nonzero"
     fill="blue"
     id="path376" />
  <path
     d="M570.32 311.43L568.52 309.79 565.34 314 566.42 314.98 570.32 311.43Z"
     fill-rule="nonzero"
     fill="blue"
     id="path378" />
  <path
     d="M568.52 309.79L566.45 308.5 564.1 313.23 565.34 314 568.52 309.79Z"
     fill-rule="nonzero"
     fill="blue"
     id="path380" />
  <path
     d="M566.45 308.5L564.18 307.63 562.74 312.7 564.1 313.23 566.45 308.5Z"
     fill-rule="nonzero"
     fill="blue"
     id="path382" />
  <path
     d="M564.18 307.63L561.79 307.18 561.3 312.43 562.74 312.7 564.18 307.63Z"
     fill-rule="nonzero"
     fill="blue"
     id="path384" />
  <path
     d="M561.79 307.18L559.36 307.18 559.84 312.43 561.3 312.43 561.79 307.18Z"
     fill-rule="nonzero"
     fill="blue"
     id="path386" />
  <path
     d="M559.36 307.18L556.96 307.63 558.41 312.7 559.84 312.43 559.36 307.18Z"
     fill-rule="nonzero"
     fill="blue"
     id="path388" />
  <path
     d="M556.96 307.63L554.7 308.5 557.05 313.23 558.41 312.7 556.96 307.63Z"
     fill-rule="nonzero"
     fill="blue"
     id="path390" />
  <path
     d="M554.7 308.5L552.63 309.79 555.81 314 557.05 313.23 554.7 308.5Z"
     fill-rule="nonzero"
     fill="blue"
     id="path392" />
  <path
     d="M552.63 309.79L550.83 311.43 554.73 314.98 555.81 314 552.63 309.79Z"
     fill-rule="nonzero"
     fill="blue"
     id="path394" />
  <path
     d="M550.83 311.43L549.36 313.37 553.85 316.15 554.73 314.98 550.83 311.43Z"
     fill-rule="nonzero"
     fill="blue"
     id="path396" />
  <path
     d="M549.36 313.37L548.28 315.55 553.2 317.45 553.85 316.15 549.36 313.37Z"
     fill-rule="nonzero"
     fill="blue"
     id="path398" />
  <path
     d="M548.28 315.55L547.61 317.89 552.8 318.86 553.2 317.45 548.28 315.55Z"
     fill-rule="nonzero"
     fill="blue"
     id="path400" />
  <path
     d="M547.61 317.89L547.39 320.31 552.66 320.31 552.8 318.86 547.61 317.89Z"
     fill-rule="nonzero"
     fill="blue"
     id="path402" />
  <path
     d="M552.98 320.31L553.35 322.66 560.57 320.31 560.57 320.31 552.98 320.31Z"
     fill-rule="nonzero"
     fill="black"
     id="path404" />
  <path
     d="M553.35 322.66L554.43 324.78 560.57 320.31 560.57 320.31 553.35 322.66Z"
     fill-rule="nonzero"
     fill="black"
     id="path406" />
  <path
     d="M554.43 324.78L556.11 326.46 560.57 320.31 560.57 320.31 554.43 324.78Z"
     fill-rule="nonzero"
     fill="black"
     id="path408" />
  <path
     d="M556.11 326.46L558.23 327.54 560.57 320.31 560.57 320.31 556.11 326.46Z"
     fill-rule="nonzero"
     fill="black"
     id="path410" />
  <path
     d="M558.23 327.54L560.57 327.91 560.57 320.31 560.57 320.31 558.23 327.54Z"
     fill-rule="nonzero"
     fill="black"
     id="path412" />
  <path
     d="M560.57 327.91L562.92 327.54 560.57 320.31 560.57 320.31 560.57 327.91Z"
     fill-rule="nonzero"
     fill="black"
     id="path414" />
  <path
     d="M562.92 327.54L565.04 326.46 560.57 320.31 560.57 320.31 562.92 327.54Z"
     fill-rule="nonzero"
     fill="black"
     id="path416" />
  <path
     d="M565.04 326.46L566.72 324.78 560.57 320.31 560.57 320.31 565.04 326.46Z"
     fill-rule="nonzero"
     fill="black"
     id="path418" />
  <path
     d="M566.72 324.78L567.8 322.66 560.57 320.31 560.57 320.31 566.72 324.78Z"
     fill-rule="nonzero"
     fill="black"
     id="path420" />
  <path
     d="M567.8 322.66L568.17 320.31 560.57 320.31 560.57 320.31 567.8 322.66Z"
     fill-rule="nonzero"
     fill="black"
     id="path422" />
  <path
     d="M568.17 320.31L567.8 317.96 560.57 320.31 560.57 320.31 568.17 320.31Z"
     fill-rule="nonzero"
     fill="black"
     id="path424" />
  <path
     d="M567.8 317.96L566.72 315.85 560.57 320.31 560.57 320.31 567.8 317.96Z"
     fill-rule="nonzero"
     fill="black"
     id="path426" />
  <path
     d="M566.72 315.85L565.04 314.16 560.57 320.31 560.57 320.31 566.72 315.85Z"
     fill-rule="nonzero"
     fill="black"
     id="path428" />
  <path
     d="M565.04 314.16L562.92 313.09 560.57 320.31 560.57 320.31 565.04 314.16Z"
     fill-rule="nonzero"
     fill="black"
     id="path430" />
  <path
     d="M562.92 313.09L560.57 312.71 560.57 320.31 560.57 320.31 562.92 313.09Z"
     fill-rule="nonzero"
     fill="black"
     id="path432" />
  <path
     d="M560.57 312.71L558.23 313.09 560.57 320.31 560.57 320.31 560.57 312.71Z"
     fill-rule="nonzero"
     fill="black"
     id="path434" />
  <path
     d="M558.23 313.09L556.11 314.16 560.57 320.31 560.57 320.31 558.23 313.09Z"
     fill-rule="nonzero"
     fill="black"
     id="path436" />
  <path
     d="M556.11 314.16L554.43 315.85 560.57 320.31 560.57 320.31 556.11 314.16Z"
     fill-rule="nonzero"
     fill="black"
     id="path438" />
  <path
     d="M554.43 315.85L553.35 317.96 560.57 320.31 560.57 320.31 554.43 315.85Z"
     fill-rule="nonzero"
     fill="black"
     id="path440" />
  <path
     d="M553.35 317.96L552.98 320.31 560.57 320.31 560.57 320.31 553.35 317.96Z"
     fill-rule="nonzero"
     fill="black"
     id="path442" />
  <path
     d="M576.38 311.02L576.38 302.58M576.38 302.58L581.61 302.58M576.38 306.6L579.6 306.6M576.38 311.02L581.61 311.02M588.44 306.6L588.04 305.79M588.04 305.79L586.83 305.39M586.83 305.39L585.63 305.39M585.63 305.39L584.42 305.79M584.42 305.79L584.02 306.6M584.02 306.6L584.42 307.4M584.42 307.4L585.23 307.8M585.23 307.8L587.24 308.2M587.24 308.2L588.04 308.61M588.04 308.61L588.44 309.41M588.44 309.41L588.44 309.81M588.44 309.81L588.04 310.62M588.04 310.62L586.83 311.02M586.83 311.02L585.63 311.02M585.63 311.02L584.42 310.62M584.42 310.62L584.02 309.81M592.06 302.58L592.06 309.41M592.06 309.41L592.46 310.62M592.46 310.62L593.26 311.02M593.26 311.02L594.07 311.02M590.85 305.39L593.67 305.39M601.3 305.39L601.3 311.02M601.3 306.6L600.5 305.79M600.5 305.79L599.7 305.39M599.7 305.39L598.49 305.39M598.49 305.39L597.69 305.79M597.69 305.79L596.88 306.6M596.88 306.6L596.48 307.8M596.48 307.8L596.48 308.61M596.48 308.61L596.88 309.81M596.88 309.81L597.69 310.62M597.69 310.62L598.49 311.02M598.49 311.02L599.7 311.02M599.7 311.02L600.5 310.62M600.5 310.62L601.3 309.81M608.94 306.6L608.14 305.79M608.14 305.79L607.33 305.39M607.33 305.39L606.13 305.39M606.13 305.39L605.32 305.79M605.32 305.79L604.52 306.6M604.52 306.6L604.12 307.8M604.12 307.8L604.12 308.61M604.12 308.61L604.52 309.81M604.52 309.81L605.32 310.62M605.32 310.62L606.13 311.02M606.13 311.02L607.33 311.02M607.33 311.02L608.14 310.62M608.14 310.62L608.94 309.81M611.35 302.98L611.75 303.38M611.75 303.38L612.16 302.98M612.16 302.98L611.75 302.58M611.75 302.58L611.35 302.98M611.75 305.39L611.75 311.02M615.37 304.19L618.99 302.58M616.58 305.39L615.77 305.79M615.77 305.79L614.97 306.6M614.97 306.6L614.57 307.8M614.57 307.8L614.57 308.61M614.57 308.61L614.97 309.81M614.97 309.81L615.77 310.62M615.77 310.62L616.58 311.02M616.58 311.02L617.78 311.02M617.78 311.02L618.59 310.62M618.59 310.62L619.39 309.81M619.39 309.81L619.79 308.61M619.79 308.61L619.79 307.8M619.79 307.8L619.39 306.6M619.39 306.6L618.59 305.79M618.59 305.79L617.78 305.39M617.78 305.39L616.58 305.39M622.2 311.02L622.2 305.39M622.2 307L623.41 305.79M623.41 305.79L624.21 305.39M624.21 305.39L625.42 305.39M625.42 305.39L626.22 305.79M626.22 305.79L626.63 307M626.63 307L626.63 311.02"
     fill="none"
     stroke="yellow"
     stroke-width="0.5"
     id="path444"
     style="fill:#000000;fill-opacity:1" />
  <path
     d="M295.2 320.31L295.43 322.73 300.61 321.76 300.48 320.31 295.2 320.31Z"
     fill-rule="nonzero"
     fill="blue"
     id="path446" />
  <path
     d="M295.43 322.73L296.09 325.08 301.01 323.17 300.61 321.76 295.43 322.73Z"
     fill-rule="nonzero"
     fill="blue"
     id="path448" />
  <path
     d="M296.09 325.08L297.18 327.25 301.66 324.48 301.01 323.17 296.09 325.08Z"
     fill-rule="nonzero"
     fill="blue"
     id="path450" />
  <path
     d="M297.18 327.25L298.64 329.2 302.54 325.64 301.66 324.48 297.18 327.25Z"
     fill-rule="nonzero"
     fill="blue"
     id="path452" />
  <path
     d="M298.64 329.2L300.44 330.84 303.62 326.63 302.54 325.64 298.64 329.2Z"
     fill-rule="nonzero"
     fill="blue"
     id="path454" />
  <path
     d="M300.44 330.84L302.51 332.12 304.86 327.39 303.62 326.63 300.44 330.84Z"
     fill-rule="nonzero"
     fill="blue"
     id="path456" />
  <path
     d="M302.51 332.12L304.78 333 306.23 327.92 304.86 327.39 302.51 332.12Z"
     fill-rule="nonzero"
     fill="blue"
     id="path458" />
  <path
     d="M304.78 333L307.17 333.44 307.66 328.19 306.23 327.92 304.78 333Z"
     fill-rule="nonzero"
     fill="blue"
     id="path460" />
  <path
     d="M307.17 333.44L309.61 333.44 309.12 328.19 307.66 328.19 307.17 333.44Z"
     fill-rule="nonzero"
     fill="blue"
     id="path462" />
  <path
     d="M309.61 333.44L312 333 310.56 327.92 309.12 328.19 309.61 333.44Z"
     fill-rule="nonzero"
     fill="blue"
     id="path464" />
  <path
     d="M312 333L314.27 332.12 311.92 327.39 310.56 327.92 312 333Z"
     fill-rule="nonzero"
     fill="blue"
     id="path466" />
  <path
     d="M314.27 332.12L316.34 330.84 313.16 326.63 311.92 327.39 314.27 332.12Z"
     fill-rule="nonzero"
     fill="blue"
     id="path468" />
  <path
     d="M316.34 330.84L318.14 329.2 314.24 325.64 313.16 326.63 316.34 330.84Z"
     fill-rule="nonzero"
     fill="blue"
     id="path470" />
  <path
     d="M318.14 329.2L319.6 327.25 315.12 324.48 314.24 325.64 318.14 329.2Z"
     fill-rule="nonzero"
     fill="blue"
     id="path472" />
  <path
     d="M319.6 327.25L320.69 325.08 315.77 323.17 315.12 324.48 319.6 327.25Z"
     fill-rule="nonzero"
     fill="blue"
     id="path474" />
  <path
     d="M320.69 325.08L321.36 322.73 316.17 321.76 315.77 323.17 320.69 325.08Z"
     fill-rule="nonzero"
     fill="blue"
     id="path476" />
  <path
     d="M321.36 322.73L321.58 320.31 316.3 320.31 316.17 321.76 321.36 322.73Z"
     fill-rule="nonzero"
     fill="blue"
     id="path478" />
  <path
     d="M321.58 320.31L321.36 317.89 316.17 318.86 316.3 320.31 321.58 320.31Z"
     fill-rule="nonzero"
     fill="blue"
     id="path480" />
  <path
     d="M321.36 317.89L320.69 315.55 315.77 317.45 316.17 318.86 321.36 317.89Z"
     fill-rule="nonzero"
     fill="blue"
     id="path482" />
  <path
     d="M320.69 315.55L319.6 313.37 315.12 316.15 315.77 317.45 320.69 315.55Z"
     fill-rule="nonzero"
     fill="blue"
     id="path484" />
  <path
     d="M319.6 313.37L318.14 311.43 314.24 314.98 315.12 316.15 319.6 313.37Z"
     fill-rule="nonzero"
     fill="blue"
     id="path486" />
  <path
     d="M318.14 311.43L316.34 309.79 313.16 314 314.24 314.98 318.14 311.43Z"
     fill-rule="nonzero"
     fill="blue"
     id="path488" />
  <path
     d="M316.34 309.79L314.27 308.5 311.92 313.23 313.16 314 316.34 309.79Z"
     fill-rule="nonzero"
     fill="blue"
     id="path490" />
  <path
     d="M314.27 308.5L312 307.63 310.56 312.7 311.92 313.23 314.27 308.5Z"
     fill-rule="nonzero"
     fill="blue"
     id="path492" />
  <path
     d="M312 307.63L309.61 307.18 309.12 312.43 310.56 312.7 312 307.63Z"
     fill-rule="nonzero"
     fill="blue"
     id="path494" />
  <path
     d="M309.61 307.18L307.17 307.18 307.66 312.43 309.12 312.43 309.61 307.18Z"
     fill-rule="nonzero"
     fill="blue"
     id="path496" />
  <path
     d="M307.17 307.18L304.78 307.63 306.23 312.7 307.66 312.43 307.17 307.18Z"
     fill-rule="nonzero"
     fill="blue"
     id="path498" />
  <path
     d="M304.78 307.63L302.51 308.5 304.86 313.23 306.23 312.7 304.78 307.63Z"
     fill-rule="nonzero"
     fill="blue"
     id="path500" />
  <path
     d="M302.51 308.5L300.44 309.79 303.62 314 304.86 313.23 302.51 308.5Z"
     fill-rule="nonzero"
     fill="blue"
     id="path502" />
  <path
     d="M300.44 309.79L298.64 311.43 302.54 314.98 303.62 314 300.44 309.79Z"
     fill-rule="nonzero"
     fill="blue"
     id="path504" />
  <path
     d="M298.64 311.43L297.18 313.37 301.66 316.15 302.54 314.98 298.64 311.43Z"
     fill-rule="nonzero"
     fill="blue"
     id="path506" />
  <path
     d="M297.18 313.37L296.09 315.55 301.01 317.45 301.66 316.15 297.18 313.37Z"
     fill-rule="nonzero"
     fill="blue"
     id="path508" />
  <path
     d="M296.09 315.55L295.43 317.89 300.61 318.86 301.01 317.45 296.09 315.55Z"
     fill-rule="nonzero"
     fill="blue"
     id="path510" />
  <path
     d="M295.43 317.89L295.2 320.31 300.48 320.31 300.61 318.86 295.43 317.89Z"
     fill-rule="nonzero"
     fill="blue"
     id="path512" />
  <path
     d="M300.79 320.31L301.17 322.66 308.39 320.31 308.39 320.31 300.79 320.31Z"
     fill-rule="nonzero"
     fill="black"
     id="path514" />
  <path
     d="M301.17 322.66L302.24 324.78 308.39 320.31 308.39 320.31 301.17 322.66Z"
     fill-rule="nonzero"
     fill="black"
     id="path516" />
  <path
     d="M302.24 324.78L303.93 326.46 308.39 320.31 308.39 320.31 302.24 324.78Z"
     fill-rule="nonzero"
     fill="black"
     id="path518" />
  <path
     d="M303.93 326.46L306.04 327.54 308.39 320.31 308.39 320.31 303.93 326.46Z"
     fill-rule="nonzero"
     fill="black"
     id="path520" />
  <path
     d="M306.04 327.54L308.39 327.91 308.39 320.31 308.39 320.31 306.04 327.54Z"
     fill-rule="nonzero"
     fill="black"
     id="path522" />
  <path
     d="M308.39 327.91L310.74 327.54 308.39 320.31 308.39 320.31 308.39 327.91Z"
     fill-rule="nonzero"
     fill="black"
     id="path524" />
  <path
     d="M310.74 327.54L312.86 326.46 308.39 320.31 308.39 320.31 310.74 327.54Z"
     fill-rule="nonzero"
     fill="black"
     id="path526" />
  <path
     d="M312.86 326.46L314.54 324.78 308.39 320.31 308.39 320.31 312.86 326.46Z"
     fill-rule="nonzero"
     fill="black"
     id="path528" />
  <path
     d="M314.54 324.78L315.62 322.66 308.39 320.31 308.39 320.31 314.54 324.78Z"
     fill-rule="nonzero"
     fill="black"
     id="path530" />
  <path
     d="M315.62 322.66L315.99 320.31 308.39 320.31 308.39 320.31 315.62 322.66Z"
     fill-rule="nonzero"
     fill="black"
     id="path532" />
  <path
     d="M315.99 320.31L315.62 317.96 308.39 320.31 308.39 320.31 315.99 320.31Z"
     fill-rule="nonzero"
     fill="black"
     id="path534" />
  <path
     d="M315.62 317.96L314.54 315.85 308.39 320.31 308.39 320.31 315.62 317.96Z"
     fill-rule="nonzero"
     fill="black"
     id="path536" />
  <path
     d="M314.54 315.85L312.86 314.16 308.39 320.31 308.39 320.31 314.54 315.85Z"
     fill-rule="nonzero"
     fill="black"
     id="path538" />
  <path
     d="M312.86 314.16L310.74 313.09 308.39 320.31 308.39 320.31 312.86 314.16Z"
     fill-rule="nonzero"
     fill="black"
     id="path540" />
  <path
     d="M310.74 313.09L308.39 312.71 308.39 320.31 308.39 320.31 310.74 313.09Z"
     fill-rule="nonzero"
     fill="black"
     id="path542" />
  <path
     d="M308.39 312.71L306.04 313.09 308.39 320.31 308.39 320.31 308.39 312.71Z"
     fill-rule="nonzero"
     fill="black"
     id="path544" />
  <path
     d="M306.04 313.09L303.93 314.16 308.39 320.31 308.39 320.31 306.04 313.09Z"
     fill-rule="nonzero"
     fill="black"
     id="path546" />
  <path
     d="M303.93 314.16L302.24 315.85 308.39 320.31 308.39 320.31 303.93 314.16Z"
     fill-rule="nonzero"
     fill="black"
     id="path548" />
  <path
     d="M302.24 315.85L301.17 317.96 308.39 320.31 308.39 320.31 302.24 315.85Z"
     fill-rule="nonzero"
     fill="black"
     id="path550" />
  <path
     d="M301.17 317.96L300.79 320.31 308.39 320.31 308.39 320.31 301.17 317.96Z"
     fill-rule="nonzero"
     fill="black"
     id="path552" />
  <path
     d="M324.2 311.02L324.2 302.58M324.2 302.58L329.43 302.58M324.2 306.6L327.42 306.6M324.2 311.02L329.43 311.02M336.26 306.6L335.86 305.79M335.86 305.79L334.65 305.39M334.65 305.39L333.44 305.39M333.44 305.39L332.24 305.79M332.24 305.79L331.84 306.6M331.84 306.6L332.24 307.4M332.24 307.4L333.04 307.8M333.04 307.8L335.05 308.2M335.05 308.2L335.86 308.61M335.86 308.61L336.26 309.41M336.26 309.41L336.26 309.81M336.26 309.81L335.86 310.62M335.86 310.62L334.65 311.02M334.65 311.02L333.44 311.02M333.44 311.02L332.24 310.62M332.24 310.62L331.84 309.81M339.88 302.58L339.88 309.41M339.88 309.41L340.28 310.62M340.28 310.62L341.08 311.02M341.08 311.02L341.89 311.02M338.67 305.39L341.48 305.39M349.12 305.39L349.12 311.02M349.12 306.6L348.32 305.79M348.32 305.79L347.51 305.39M347.51 305.39L346.31 305.39M346.31 305.39L345.5 305.79M345.5 305.79L344.7 306.6M344.7 306.6L344.3 307.8M344.3 307.8L344.3 308.61M344.3 308.61L344.7 309.81M344.7 309.81L345.5 310.62M345.5 310.62L346.31 311.02M346.31 311.02L347.51 311.02M347.51 311.02L348.32 310.62M348.32 310.62L349.12 309.81M356.76 306.6L355.95 305.79M355.95 305.79L355.15 305.39M355.15 305.39L353.94 305.39M353.94 305.39L353.14 305.79M353.14 305.79L352.34 306.6M352.34 306.6L351.93 307.8M351.93 307.8L351.93 308.61M351.93 308.61L352.34 309.81M352.34 309.81L353.14 310.62M353.14 310.62L353.94 311.02M353.94 311.02L355.15 311.02M355.15 311.02L355.95 310.62M355.95 310.62L356.76 309.81M359.17 302.98L359.57 303.38M359.57 303.38L359.97 302.98M359.97 302.98L359.57 302.58M359.57 302.58L359.17 302.98M359.57 305.39L359.57 311.02M363.19 304.19L366.81 302.58M364.39 305.39L363.59 305.79M363.59 305.79L362.79 306.6M362.79 306.6L362.38 307.8M362.38 307.8L362.38 308.61M362.38 308.61L362.79 309.81M362.79 309.81L363.59 310.62M363.59 310.62L364.39 311.02M364.39 311.02L365.6 311.02M365.6 311.02L366.4 310.62M366.4 310.62L367.21 309.81M367.21 309.81L367.61 308.61M367.61 308.61L367.61 307.8M367.61 307.8L367.21 306.6M367.21 306.6L366.4 305.79M366.4 305.79L365.6 305.39M365.6 305.39L364.39 305.39M370.02 311.02L370.02 305.39M370.02 307L371.23 305.79M371.23 305.79L372.03 305.39M372.03 305.39L373.24 305.39M373.24 305.39L374.04 305.79M374.04 305.79L374.44 307M374.44 307L374.44 311.02"
     fill="none"
     stroke="yellow"
     stroke-width="0.5"
     id="path554"
     style="fill:#e9e753;fill-opacity:0;stroke-width:0.7;stroke-miterlimit:4;stroke-dasharray:none" />
</svg>
